<?xml version="1.0" encoding="utf-8"?>
<svg version="1.1" xmlns:xlink="http://www.w3.org/1999/xlink" width="23px" height="23px" xmlns="http://www.w3.org/2000/svg">
  <g transform="matrix(1 0 0 1 -186 -352 )">
    <path d="M 17.923828125 13.132161458333336  C 18.11349826388889 12.942491319444443  18.208333333333332 12.717881944444443  18.208333333333332 12.458333333333336  L 18.208333333333332 10.541666666666668  C 18.208333333333332 10.282118055555554  18.11349826388889 10.057508680555554  17.923828125 9.867838541666668  C 17.734157986111114 9.678168402777779  17.509548611111114 9.583333333333332  17.25 10  L 5.75 10  C 5.490451388888889 9.583333333333332  5.265842013888889 9.678168402777779  5.076171875 9.867838541666668  C 4.886501736111112 10.057508680555554  4.791666666666667 10.282118055555554  4.791666666666667 10.541666666666668  L 4.791666666666667 12.458333333333336  C 4.791666666666667 12.717881944444443  4.886501736111112 12.942491319444443  5.076171875 13.132161458333336  C 5.265842013888889 13.321831597222221  5.490451388888889 13.416666666666664  5.75 13  L 17.25 13  C 17.509548611111114 13.416666666666664  17.734157986111114 13.321831597222221  17.923828125 13.132161458333336  Z M 21.457682291666668 5.7275390625  C 22.485894097222218 7.489474826388887  23 9.41362847222222  23 11.5  C 23 13.586371527777779  22.485894097222218 15.510525173611109  21.457682291666668 17.2724609375  C 20.429470486111114 19.03439670138889  19.03439670138889 20.42947048611111  17.2724609375 21.457682291666668  C 15.510525173611114 22.485894097222225  13.586371527777779 23  11.5 23  C 9.413628472222223 23  7.489474826388889 22.485894097222225  5.7275390625 21.457682291666668  C 3.9656032986111116 20.42947048611111  2.5705295138888893 19.03439670138889  1.5423177083333335 17.2724609375  C 0.5141059027777777 15.510525173611109  0 13.586371527777779  0 11.5  C 0 9.41362847222222  0.5141059027777777 7.489474826388887  1.5423177083333335 5.7275390625  C 2.5705295138888893 3.9656032986111107  3.9656032986111116 2.5705295138888866  5.7275390625 1.5423177083333326  C 7.489474826388889 0.5141059027777758  9.413628472222223 0  11.5 0  C 13.586371527777779 0  15.510525173611114 0.5141059027777758  17.2724609375 1.5423177083333326  C 19.03439670138889 2.5705295138888866  20.429470486111114 3.9656032986111107  21.457682291666668 5.7275390625  Z " fill-rule="nonzero" fill="#999999" stroke="none" fill-opacity="0.5882352941176471" transform="matrix(1 0 0 1 186 352 )" />
  </g>
</svg>