<?xml version="1.0" encoding="utf-8"?>
<svg version="1.1" xmlns:xlink="http://www.w3.org/1999/xlink" width="23px" height="23px" xmlns="http://www.w3.org/2000/svg">
  <g transform="matrix(1 0 0 1 -186 -341 )">
    <path d="M 17.923828125 13.1321614583333  C 18.1134982638889 12.9424913194444  18.2083333333333 12.7178819444444  18.2083333333333 12.4583333333333  L 18.2083333333333 10.5416666666667  C 18.2083333333333 10.2821180555556  18.1134982638889 10.0575086805556  17.923828125 9.86783854166667  C 17.7341579861111 9.67816840277778  17.5095486111111 9.58333333333333  17.25 10  L 5.75 10  C 5.49045138888889 9.58333333333333  5.26584201388889 9.67816840277778  5.076171875 9.86783854166667  C 4.88650173611111 10.0575086805556  4.79166666666667 10.2821180555556  4.79166666666667 10.5416666666667  L 4.79166666666667 12.4583333333333  C 4.79166666666667 12.7178819444444  4.88650173611111 12.9424913194444  5.076171875 13.1321614583333  C 5.26584201388889 13.3218315972222  5.49045138888889 13.4166666666667  5.75 13  L 17.25 13  C 17.5095486111111 13.4166666666667  17.7341579861111 13.3218315972222  17.923828125 13.1321614583333  Z M 21.4576822916667 5.7275390625  C 22.4858940972222 7.48947482638889  23 9.41362847222222  23 11.5  C 23 13.5863715277778  22.4858940972222 15.5105251736111  21.4576822916667 17.2724609375  C 20.4294704861111 19.0343967013889  19.0343967013889 20.4294704861111  17.2724609375 21.4576822916667  C 15.5105251736111 22.4858940972222  13.5863715277778 23  11.5 23  C 9.41362847222222 23  7.48947482638889 22.4858940972222  5.7275390625 21.4576822916667  C 3.96560329861111 20.4294704861111  2.57052951388889 19.0343967013889  1.54231770833333 17.2724609375  C 0.514105902777778 15.5105251736111  0 13.5863715277778  0 11.5  C 0 9.41362847222222  0.514105902777778 7.48947482638889  1.54231770833333 5.7275390625  C 2.57052951388889 3.96560329861111  3.96560329861111 2.57052951388889  5.7275390625 1.54231770833333  C 7.48947482638889 0.514105902777776  9.41362847222222 0  11.5 0  C 13.5863715277778 0  15.5105251736111 0.514105902777776  17.2724609375 1.54231770833333  C 19.0343967013889 2.57052951388889  20.4294704861111 3.96560329861111  21.4576822916667 5.7275390625  Z " fill-rule="nonzero" fill="#999999" stroke="none" fill-opacity="0.588235294117647" transform="matrix(1 0 0 1 186 341 )" />
  </g>
</svg>