<?xml version="1.0" encoding="utf-8"?>
<svg version="1.1" xmlns:xlink="http://www.w3.org/1999/xlink" width="16px" height="16px" xmlns="http://www.w3.org/2000/svg">
  <g transform="matrix(1 0 0 1 -29 -78 )">
    <path d="M 37 78  C 41.48 78  45 81.52  45 86  C 45 90.48  41.48 94  37 94  C 32.52 94  29 90.48  29 86  C 29 81.52  32.52 78  37 78  Z " fill-rule="nonzero" fill="#ffffff" stroke="none" />
    <path d="M 37 78.5  C 41.2 78.5  44.5 81.8  44.5 86  C 44.5 90.2  41.2 93.5  37 93.5  C 32.8 93.5  29.5 90.2  29.5 86  C 29.5 81.8  32.8 78.5  37 78.5  Z " stroke-width="1" stroke="#797979" fill="none" />
  </g>
</svg>