<?xml version="1.0" encoding="utf-8"?>
<svg version="1.1" xmlns:xlink="http://www.w3.org/1999/xlink" width="8px" height="18px" xmlns="http://www.w3.org/2000/svg">
  <g transform="matrix(1 0 0 1 -33 -100 )">
    <path d="M 7.6571428571428575 13.333333333333332  C 7.802597402597403 13.333333333333332  7.903030303030304 13.399305555555555  7.958441558441558 13.53125  C 8.013852813852814 13.663194444444446  7.996536796536797 13.784722222222221  7.906493506493507 13.895833333333332  L 4.27012987012987 17.895833333333332  C 4.2008658008658015 17.96527777777778  4.121212121212121 18  4.031168831168831 18  C 3.9341991341991345 18  3.8510822510822513 17.96527777777778  3.7818181818181817 17.895833333333332  L 0.09350649350649351 13.895833333333332  C 0.0034632034632034554 13.784722222222221  -0.01385281385281386 13.663194444444446  0.04155844155844156 13.53125  C 0.1038961038961039 13.399305555555555  0.2043290043290043 13.333333333333332  0.34285714285714286 13.333333333333332  L 2.67012987012987 13.333333333333332  L 2.67012987012987 0.3333333333333328  C 2.67012987012987 0.23611111111110916  2.7012987012987013 0.15625000000000044  2.7636363636363637 0.09375000000000067  C 2.825974025974026 0.03125000000000089  2.905627705627706 0  3.0025974025974027 0  L 4.997402597402598 0  C 5.094372294372294 0  5.174025974025974 0.03125000000000089  5.236363636363636 0.09375000000000067  C 5.298701298701299 0.15625000000000044  5.32987012987013 0.23611111111110916  5.32987012987013 0.3333333333333328  L 5.32987012987013 13.333333333333332  L 7.6571428571428575 13.333333333333332  Z " fill-rule="nonzero" fill="#797979" stroke="none" transform="matrix(1 0 0 1 33 100 )" />
  </g>
</svg>