<?xml version="1.0" encoding="utf-8"?>
<svg version="1.1" xmlns:xlink="http://www.w3.org/1999/xlink" width="8px" height="18px" xmlns="http://www.w3.org/2000/svg">
  <g transform="matrix(1 0 0 1 -33 -100 )">
    <path d="M 7.65714285714286 13.3333333333333  C 7.8025974025974 13.3333333333333  7.9030303030303 13.3993055555556  7.95844155844156 13.53125  C 8.01385281385281 13.6631944444444  7.9965367965368 13.7847222222222  7.90649350649351 13.8958333333333  L 4.27012987012987 17.8958333333333  C 4.2008658008658 17.9652777777778  4.12121212121212 18  4.03116883116883 18  C 3.93419913419913 18  3.85108225108225 17.9652777777778  3.78181818181818 17.8958333333333  L 0.0935064935064935 13.8958333333333  C 0.00346320346320346 13.7847222222222  -0.0138528138528139 13.6631944444444  0.0415584415584416 13.53125  C 0.103896103896104 13.3993055555556  0.204329004329004 13.3333333333333  0.342857142857143 13.3333333333333  L 2.67012987012987 13.3333333333333  L 2.67012987012987 0.333333333333333  C 2.67012987012987 0.236111111111109  2.7012987012987 0.15625  2.76363636363636 0.0937500000000007  C 2.82597402597403 0.0312500000000009  2.90562770562771 0  3.0025974025974 0  L 4.9974025974026 0  C 5.09437229437229 0  5.17402597402597 0.0312500000000009  5.23636363636364 0.0937500000000007  C 5.2987012987013 0.15625  5.32987012987013 0.236111111111109  5.32987012987013 0.333333333333333  L 5.32987012987013 13.3333333333333  L 7.65714285714286 13.3333333333333  Z " fill-rule="nonzero" fill="#797979" stroke="none" transform="matrix(1 0 0 1 33 100 )" />
  </g>
</svg>