<?xml version="1.0" encoding="utf-8"?>
<svg version="1.1" xmlns:xlink="http://www.w3.org/1999/xlink" width="10px" height="18px" xmlns="http://www.w3.org/2000/svg">
  <g transform="matrix(1 0 0 1 -326 -271 )">
    <path d="M 9.828178694158074 8.585170340681364  C 9.942726231386027 8.705410821643286  10 8.843687374749498  10 9  C 10 9.1563126252505  9.942726231386027 9.294589178356713  9.828178694158074 9.414829659318636  L 1.8213058419243986 17.819639278557116  C 1.7067583046964492 17.939879759519037  1.575028636884307 18  1.4261168384879723 18  C 1.2772050400916382 18  1.1454753722794961 17.939879759519037  1.0309278350515463 17.819639278557116  L 0.1718213058419244 16.917835671342687  C 0.05727376861397484 16.79759519038076  0 16.65931863727455  0 16.50300601202405  C 0 16.346693386773545  0.05727376861397484 16.208416833667336  0.1718213058419244 16.08817635270541  L 6.9243986254295535 9  L 0.1718213058419244 1.911823647294589  C 0.05727376861397484 1.7915831663326645  0 1.6533066132264522  0 1.4969939879759524  C 0 1.3406813627254486  0.05727376861397484 1.2024048096192363  0.1718213058419244 1.0821643286573137  L 1.0309278350515463 0.18036072144288595  C 1.1454753722794961 0.06012024048096132  1.2772050400916382 0  1.4261168384879723 0  C 1.575028636884307 0  1.7067583046964492 0.06012024048096132  1.8213058419243986 0.18036072144288595  L 9.828178694158074 8.585170340681364  Z " fill-rule="nonzero" fill="#797979" stroke="none" transform="matrix(1 0 0 1 326 271 )" />
  </g>
</svg>