<?xml version="1.0" encoding="utf-8"?>
<svg version="1.1" xmlns:xlink="http://www.w3.org/1999/xlink" width="8px" height="15px" xmlns="http://www.w3.org/2000/svg">
  <g transform="matrix(1 0 0 1 -384 -244 )">
    <path d="M 7.86254295532646 7.154308617234469  C 7.954180985108821 7.254509018036072  8 7.369739478957915  8 7.5  C 8 7.630260521042083  7.954180985108821 7.745490981963926  7.86254295532646 7.845691382765531  L 1.4570446735395188 14.849699398797595  C 1.3654066437571593 14.9498997995992  1.2600229095074456 15  1.140893470790378 15  C 1.0217640320733106 15  0.9163802978235969 14.9498997995992  0.8247422680412371 14.849699398797595  L 0.13745704467353953 14.098196392785573  C 0.04581901489117987 13.997995991983966  0 13.882765531062125  0 13.75250501002004  C 0 13.622244488977955  0.04581901489117987 13.507014028056114  0.13745704467353953 13.40681362725451  L 5.5395189003436425 7.5  L 0.13745704467353953 1.593186372745491  C 0.04581901489117987 1.4929859719438872  0 1.3777555110220434  0 1.2474949899799603  C 0 1.1172344689378737  0.04581901489117987 1.0020040080160304  0.13745704467353953 0.9018036072144281  L 0.8247422680412371 0.15030060120240496  C 0.9163802978235969 0.0501002004008011  1.0217640320733106 0  1.140893470790378 0  C 1.2600229095074456 0  1.3654066437571593 0.0501002004008011  1.4570446735395188 0.15030060120240496  L 7.86254295532646 7.154308617234469  Z " fill-rule="nonzero" fill="#000000" stroke="none" transform="matrix(1 0 0 1 384 244 )" />
  </g>
</svg>