<?xml version="1.0" encoding="utf-8"?>
<svg version="1.1" xmlns:xlink="http://www.w3.org/1999/xlink" width="23px" height="23px" xmlns="http://www.w3.org/2000/svg">
  <g transform="matrix(1 0 0 1 -320 -111 )">
    <path d="M 11.5 21.9732142857143  C 11.6474358974359 21.9732142857143  11.7211538461538 21.9047619047619  11.7211538461538 21.7678571428571  C 11.7211538461538 21.6309523809524  11.6474358974359 21.5625  11.5 21.5625  C 10.9563301282051 21.5625  10.4886818910256 21.3806733630952  10.0970552884615 21.0170200892857  C 9.70542868589744 20.6533668154762  9.50961538461538 20.2191220238095  9.50961538461538 19.7142857142857  C 9.50961538461538 19.577380952381  9.43589743589744 19.5089285714286  9.28846153846154 19.5089285714286  C 9.14102564102564 19.5089285714286  9.06730769230769 19.577380952381  9.06730769230769 19.7142857142857  C 9.06730769230769 20.3389136904762  9.30458733974359 20.8715587797619  9.77914663461538 21.3122209821429  C 10.2537059294872 21.7528831845238  10.8273237179487 21.9732142857143  11.5 21.9732142857143  Z M 6.19230769230769 7.39285714285714  C 6.19230769230769 11.9449404761905  4.96674679487179 15.5044642857143  2.515625 18  L 20.484375 18  C 18.0332532051282 15.5044642857143  16.8076923076923 11.9449404761905  16.8076923076923 7.39285714285714  C 16.8076923076923 6.95647321428571  16.6971153846154 6.50725446428571  16.4759615384615 6.04520089285714  C 16.2548076923077 5.58314732142857  15.9368990384615 5.14248511904762  15.5222355769231 4.72321428571429  C 15.1075721153846 4.30394345238095  14.5477764423077 3.95954241071429  13.8428485576923 3.69001116071429  C 13.1379206730769 3.42047991071429  12.3569711538462 3.28571428571429  11.5 3.28571428571429  C 10.6430288461538 3.28571428571429  9.86207932692308 3.42047991071429  9.15715144230769 3.69001116071429  C 8.45222355769231 3.95954241071429  7.89242788461538 4.30394345238095  7.47776442307692 4.72321428571429  C 7.06310096153846 5.14248511904762  6.74519230769231 5.58314732142857  6.52403846153846 6.04520089285714  C 6.30288461538462 6.50725446428571  6.19230769230769 6.95647321428571  6.19230769230769 7.39285714285714  Z M 21.7421875 16.9419642857143  C 22.1199919871795 17.3355654761905  22.5392628205128 17.7120535714286  23 18.0714285714286  C 23 18.516369047619  22.8249198717949 18.9014136904762  22.4747596153846 19.2265625  C 22.1245993589744 19.5517113095238  21.7099358974359 19.7142857142857  21.2307692307692 19.7142857142857  L 15.0384615384615 19.7142857142857  C 15.0384615384615 20.6212797619048  14.6929086538462 21.3956473214286  14.0018028846154 22.0373883928571  C 13.3106971153846 22.6791294642857  12.4767628205128 23  11.5 23  C 10.5232371794872 23  9.68930288461538 22.6791294642857  8.99819711538462 22.0373883928571  C 8.30709134615385 21.3956473214286  7.96153846153846 20.6212797619048  7.96153846153846 19.7142857142857  L 1.76923076923077 19.7142857142857  C 1.2900641025641 19.7142857142857  0.875400641025641 19.5517113095238  0.525240384615385 19.2265625  C 0.175080128205128 18.9014136904762  0 18.516369047619  0 18.0714285714286  C 0.46073717948718 17.7120535714286  0.880008012820513 17.3355654761905  1.2578125 16.9419642857143  C 1.63561698717949 16.5483630952381  2.02724358974359 16.037109375  2.43269230769231 15.408203125  C 2.83814102564103 14.779296875  3.18139022435897 14.1011904761905  3.46243990384615 13.3738839285714  C 3.74348958333333 12.6465773809524  3.97385817307692 11.7652529761905  4.15354567307692 10.7299107142857  C 4.33323317307692 9.69456845238095  4.42307692307692 8.58221726190476  4.42307692307692 7.39285714285714  C 4.42307692307692 6.0922619047619  4.96213942307692 4.88364955357143  6.04026442307692 3.76702008928571  C 7.11838942307692 2.650390625  8.53285256410256 1.97228422619047  10.2836538461538 1.73270089285714  C 10.2099358974359 1.57012648809524  10.1730769230769 1.40327380952381  10.1730769230769 1.23214285714286  C 10.1730769230769 0.889880952380952  10.3020833333333 0.598958333333332  10.5600961538462 0.359375  C 10.818108974359 0.119791666666668  11.1314102564103 0  11.5 0  C 11.8685897435897 0  12.181891025641 0.119791666666668  12.4399038461538 0.359375  C 12.6979166666667 0.598958333333332  12.8269230769231 0.889880952380952  12.8269230769231 1.23214285714286  C 12.8269230769231 1.40327380952381  12.7900641025641 1.57012648809524  12.7163461538462 1.73270089285714  C 14.4671474358974 1.97228422619047  15.8816105769231 2.650390625  16.9597355769231 3.76702008928571  C 18.0378605769231 4.88364955357143  18.5769230769231 6.0922619047619  18.5769230769231 7.39285714285714  C 18.5769230769231 8.58221726190476  18.6667668269231 9.69456845238095  18.8464543269231 10.7299107142857  C 19.0261418269231 11.7652529761905  19.2565104166667 12.6465773809524  19.5375600961538 13.3738839285714  C 19.818609775641 14.1011904761905  20.161858974359 14.779296875  20.5673076923077 15.408203125  C 20.9727564102564 16.037109375  21.3643830128205 16.5483630952381  21.7421875 16.9419642857143  Z " fill-rule="nonzero" fill="#000000" stroke="none" transform="matrix(1 0 0 1 320 111 )" />
  </g>
</svg>