<?xml version="1.0" encoding="utf-8"?>
<svg version="1.1" xmlns:xlink="http://www.w3.org/1999/xlink" width="93px" height="37px" xmlns="http://www.w3.org/2000/svg">
  <g transform="matrix(1 0 0 1 -266 -241 )">
    <path d="M 18.5 37  C 8.13999999999999 37  0 28.86  0 18.5  C 0 8.13999999999999  8.13999999999999 0  18.5 0  L 49.6394557823141 0  L 52.3605442176859 0  L 63.3333333333321 0  L 66.6666666666679 0  L 72 0  L 74.5 0  C 76.8801463246791 0  79.1431160802695 0.429647419992534  81.2171210093048 1.21715400251168  C 88.1705825187889 3.85740650787039  93 10.5201463246792  93 18.5  C 93 28.86  84.86 37  74.5 37  L 18.5 37  Z " fill-rule="nonzero" fill="#4abdac" stroke="none" fill-opacity="0.258823529411765" transform="matrix(1 0 0 1 266 241 )" />
  </g>
</svg>