<?xml version="1.0" encoding="utf-8"?>
<svg version="1.1" xmlns:xlink="http://www.w3.org/1999/xlink" width="9px" height="16px" xmlns="http://www.w3.org/2000/svg">
  <g transform="matrix(1 0 0 1 -388 -507 )">
    <path d="M 8.845360824742267 7.631262525050101  C 8.948453608247425 7.73814295257181  9 7.861055444221776  9 8  C 9 8.138944555778222  8.948453608247425 8.261857047428188  8.845360824742267 8.3687374749499  L 1.6391752577319587 15.839679358717435  C 1.5360824742268042 15.946559786239145  1.4175257731958761 16  1.2835051546391751 16  C 1.1494845360824744 16  1.0309278350515465 15.946559786239145  0.9278350515463917 15.839679358717435  L 0.15463917525773196 15.03807615230461  C 0.05154639175257736 14.931195724782897  0 14.808283233132933  0 14.669338677354709  C 0 14.530394121576485  0.05154639175257736 14.40748162992652  0.15463917525773196 14.30060120240481  L 6.231958762886598 8  L 0.15463917525773196 1.6993987975951903  C 0.05154639175257736 1.5925183700734795  0 1.469605878423513  0 1.330661322645291  C 0 1.1917167668670654  0.05154639175257736 1.068804275217099  0.15463917525773196 0.96192384769539  L 0.9278350515463917 0.1603206412825653  C 1.0309278350515465 0.053440213760854505  1.1494845360824744 0  1.2835051546391751 0  C 1.4175257731958761 0  1.5360824742268042 0.053440213760854505  1.6391752577319587 0.1603206412825653  L 8.845360824742267 7.631262525050101  Z " fill-rule="nonzero" fill="#000000" stroke="none" transform="matrix(1 0 0 1 388 507 )" />
  </g>
</svg>