<?xml version="1.0" encoding="utf-8"?>
<svg version="1.1" xmlns:xlink="http://www.w3.org/1999/xlink" width="23px" height="23px" xmlns="http://www.w3.org/2000/svg">
  <g transform="matrix(1 0 0 1 -322 -111 )">
    <path d="M 11.5 21.97321428571429  C 11.6474358974359 21.97321428571429  11.721153846153848 21.904761904761905  11.721153846153845 21.767857142857142  C 11.721153846153848 21.63095238095238  11.6474358974359 21.5625  11.5 21.5625  C 10.95633012820513 21.5625  10.488681891025642 21.380673363095237  10.097055288461538 21.01702008928571  C 9.705428685897436 20.65336681547619  9.509615384615383 20.219122023809522  9.509615384615383 19.714285714285715  C 9.509615384615383 19.577380952380953  9.435897435897436 19.50892857142857  9.288461538461538 19.50892857142857  C 9.141025641025642 19.50892857142857  9.067307692307692 19.577380952380953  9.067307692307692 19.714285714285715  C 9.067307692307692 20.33891369047619  9.30458733974359 20.871558779761905  9.779146634615383 21.312220982142858  C 10.25370592948718 21.75288318452381  10.827323717948719 21.97321428571429  11.5 21.97321428571429  Z M 6.192307692307692 7.392857142857142  C 6.192307692307692 11.944940476190478  4.966746794871795 15.504464285714285  2.515625 18  L 20.484375 18  C 18.033253205128204 15.504464285714285  16.807692307692307 11.944940476190478  16.807692307692307 7.392857142857142  C 16.807692307692307 6.9564732142857135  16.697115384615383 6.5072544642857135  16.47596153846154 6.045200892857142  C 16.254807692307693 5.583147321428571  15.936899038461538 5.142485119047617  15.522235576923077 4.7232142857142865  C 15.107572115384617 4.303943452380952  14.547776442307693 3.959542410714287  13.842848557692307 3.690011160714287  C 13.137920673076923 3.420479910714287  12.356971153846155 3.285714285714287  11.5 3.285714285714287  C 10.643028846153847 3.285714285714287  9.862079326923077 3.420479910714287  9.157151442307692 3.690011160714287  C 8.452223557692308 3.959542410714287  7.892427884615384 4.303943452380952  7.4777644230769225 4.7232142857142865  C 7.063100961538462 5.142485119047617  6.745192307692308 5.583147321428571  6.524038461538462 6.045200892857142  C 6.302884615384616 6.5072544642857135  6.192307692307692 6.9564732142857135  6.192307692307692 7.392857142857142  Z M 21.7421875 16.941964285714285  C 22.11999198717949 17.335565476190478  22.53926282051282 17.71205357142857  23 18.07142857142857  C 23.000000000000004 18.516369047619047  22.824919871794872 18.901413690476193  22.474759615384617 19.2265625  C 22.12459935897436 19.551711309523807  21.709935897435898 19.714285714285715  21.230769230769234 19.714285714285715  L 15.038461538461538 19.714285714285715  C 15.038461538461538 20.621279761904763  14.692908653846155 21.39564732142857  14.001802884615383 22.037388392857142  C 13.310697115384617 22.67912946428571  12.476762820512823 23  11.5 23  C 10.52323717948718 23  9.689302884615383 22.67912946428571  8.998197115384617 22.037388392857142  C 8.307091346153847 21.39564732142857  7.961538461538462 20.621279761904763  7.961538461538462 19.714285714285715  L 1.7692307692307694 19.714285714285715  C 1.2900641025641029 19.714285714285715  0.8754006410256411 19.551711309523807  0.5252403846153846 19.2265625  C 0.17508012820512825 18.901413690476193  0 18.516369047619047  0 18.07142857142857  C 0.4607371794871796 17.71205357142857  0.880008012820513 17.335565476190478  1.2578125 16.941964285714285  C 1.6356169871794874 16.548363095238095  2.02724358974359 16.037109375  2.4326923076923075 15.408203125  C 2.838141025641026 14.779296875  3.181390224358975 14.101190476190474  3.462439903846154 13.373883928571429  C 3.743489583333334 12.646577380952381  3.9738581730769234 11.765252976190478  4.153545673076923 10.729910714285714  C 4.333233173076923 9.694568452380953  4.423076923076923 8.58221726190476  4.423076923076923 7.392857142857142  C 4.423076923076923 6.092261904761903  4.962139423076923 4.883649553571429  6.0402644230769225 3.767020089285713  C 7.1183894230769225 2.650390625  8.532852564102564 1.9722842261904745  10.283653846153847 1.7327008928571421  C 10.209935897435898 1.570126488095236  10.173076923076923 1.4032738095238098  10.173076923076923 1.2321428571428579  C 10.173076923076923 0.8898809523809518  10.302083333333334 0.5989583333333325  10.560096153846153 0.359375  C 10.818108974358976 0.11979166666666752  11.131410256410257 0  11.5 0  C 11.868589743589745 0  12.181891025641029 0.11979166666666752  12.439903846153845 0.359375  C 12.697916666666668 0.5989583333333325  12.826923076923077 0.8898809523809518  12.826923076923077 1.2321428571428579  C 12.826923076923077 1.4032738095238098  12.790064102564102 1.570126488095236  12.716346153846155 1.7327008928571421  C 14.467147435897438 1.9722842261904745  15.881610576923077 2.650390625  16.959735576923077 3.767020089285713  C 18.037860576923077 4.883649553571429  18.576923076923077 6.092261904761903  18.576923076923077 7.392857142857142  C 18.576923076923077 8.58221726190476  18.666766826923077 9.694568452380953  18.846454326923077 10.729910714285714  C 19.026141826923077 11.765252976190478  19.256510416666668 12.646577380952381  19.537560096153847 13.373883928571429  C 19.81860977564103 14.101190476190474  20.161858974358974 14.779296875  20.567307692307693 15.408203125  C 20.972756410256412 16.037109375  21.364383012820518 16.548363095238095  21.7421875 16.941964285714285  Z " fill-rule="nonzero" fill="#000000" stroke="none" transform="matrix(1 0 0 1 322 111 )" />
  </g>
</svg>