<?xml version="1.0" encoding="utf-8"?>
<svg version="1.1" xmlns:xlink="http://www.w3.org/1999/xlink" width="30px" height="29px" xmlns="http://www.w3.org/2000/svg">
  <g transform="matrix(1 0 0 1 -280 -265 )">
    <path d="M 28.990384615384617 10.39760554505356  C 29.66346153846154 10.507246376811596  30 10.787439613526569  30 11.23818525519849  C 30 11.506196177273681  29.843750000000004 11.798571728628437  29.53125 12.11531190926276  L 22.986778846153847 18.584120982986768  L 24.537259615384617 27.720856962822936  C 24.549278846153847 27.80613316530141  24.555288461538463 27.92795631169922  24.555288461538463 28.086326402016383  C 24.555288461538463 28.342155009451798  24.4921875 28.558391094307918  24.365985576923077 28.735034656584748  C 24.239783653846153 28.911678218861585  24.056490384615387 29  23.81610576923077 29  C 23.587740384615387 29  23.34735576923077 28.926906112161312  23.094951923076923 28.780718336483933  L 15 24.46817895400126  L 6.905048076923077 28.780718336483933  C 6.640625000000001 28.926906112161312  6.400240384615384 29  6.183894230769231 29  C 5.931490384615384 29  5.7421875 28.911678218861585  5.615985576923077 28.735034656584748  C 5.489783653846154 28.558391094307918  5.4266826923076925 28.342155009451798  5.4266826923076925 28.086326402016383  C 5.4266826923076925 28.013232514177695  5.438701923076923 27.891409367779875  5.462740384615384 27.720856962822936  L 7.013221153846154 18.584120982986768  L 0.45072115384615385 12.11531190926276  C 0.1502403846153846 11.786389413988658  0 11.494013862633901  0 11.23818525519849  C 0 10.787439613526569  0.3365384615384615 10.507246376811596  1.0096153846153846 10.39760554505356  L 10.060096153846153 9.063642091997478  L 14.116586538461538 0.7492123503465644  C 14.344951923076925 0.2497374501155204  14.639423076923077 0  15 0  C 15.360576923076922 0  15.655048076923077 0.2497374501155204  15.883413461538463 0.7492123503465644  L 19.939903846153847 9.063642091997478  L 28.990384615384617 10.39760554505356  Z " fill-rule="nonzero" fill="#47b4a4" stroke="none" transform="matrix(1 0 0 1 280 265 )" />
  </g>
</svg>