<?xml version="1.0" encoding="utf-8"?>
<svg version="1.1" xmlns:xlink="http://www.w3.org/1999/xlink" width="317px" height="36px" xmlns="http://www.w3.org/2000/svg">
  <g transform="matrix(1 0 0 1 -120 -498 )">
    <path d="M 63.05913978494623 36  C 27.746021505376298 36  0 28.080000000000013  0 18  C 0 7.9199999999999875  27.746021505376298 0  63.05913978494623 0  L 169.2011557311138 0  L 178.47626362372492 0  L 215.87813620071273 0  L 227.24014336917978 0  L 245.41935483870967 0  L 253.94086021505376 0  C 262.05383209594925 0  269.76739567145614 0.41803532756030354  276.83685333279175 1.1842579483897395  C 300.5384371876999 3.7531522779279505  317 10.235818045633778  317 18  C 317 28.080000000000013  289.2539784946237 36  253.94086021505376 36  L 63.05913978494623 36  Z " fill-rule="nonzero" fill="#4abdac" stroke="none" fill-opacity="0" transform="matrix(1 0 0 1 120 498 )" />
  </g>
</svg>