<?xml version="1.0" encoding="utf-8"?>
<svg version="1.1" xmlns:xlink="http://www.w3.org/1999/xlink" width="10px" height="19px" xmlns="http://www.w3.org/2000/svg">
  <g transform="matrix(1 0 0 1 -872 -193 )">
    <path d="M 9.82817869415807 1.14228456913828  C 9.94272623138603 1.26920507682031  10 1.41516366065464  10 1.58016032064128  C 10 1.74515698062792  9.94272623138603 1.89111556446226  9.82817869415807 2.01803607214429  L 3.07560137457045 9.5  L 9.82817869415807 16.9819639278557  C 9.94272623138603 17.1088844355377  10 17.2548430193721  10 17.4198396793587  C 10 17.5848363393454  9.94272623138603 17.7307949231797  9.82817869415807 17.8577154308617  L 8.96907216494845 18.809619238477  C 8.8545246277205 18.936539746159  8.72279495990836 19  8.57388316151203 19  C 8.4249713631157 19  8.29324169530355 18.936539746159  8.1786941580756 18.809619238477  L 0.171821305841924 9.93787575150301  C 0.0572737686139748 9.81095524382097  0 9.66499665998664  0 9.5  C 0 9.33500334001336  0.0572737686139748 9.18904475617902  0.171821305841924 9.06212424849699  L 8.1786941580756 0.190380761523046  C 8.29324169530355 0.0634602538410147  8.4249713631157 0  8.57388316151203 0  C 8.72279495990836 0  8.8545246277205 0.0634602538410147  8.96907216494845 0.190380761523046  L 9.82817869415807 1.14228456913828  Z " fill-rule="nonzero" fill="#000000" stroke="none" transform="matrix(1 0 0 1 872 193 )" />
  </g>
</svg>