<?xml version="1.0" encoding="utf-8"?>
<svg version="1.1" xmlns:xlink="http://www.w3.org/1999/xlink" width="10px" height="19px" xmlns="http://www.w3.org/2000/svg">
  <g transform="matrix(1 0 0 1 -872 -193 )">
    <path d="M 9.828178694158074 1.1422845691382757  C 9.942726231386027 1.2692050768203051  10 1.41516366065464  10 1.580160320641283  C 10 1.7451569806279217  9.942726231386027 1.891115564462257  9.828178694158074 2.0180360721442883  L 3.075601374570447 9.5  L 9.828178694158074 16.981963927855713  C 9.942726231386027 17.108884435537743  10 17.254843019372075  10 17.419839679358716  C 10 17.584836339345358  9.942726231386027 17.73079492317969  9.828178694158074 17.857715430861724  L 8.969072164948454 18.809619238476955  C 8.854524627720505 18.936539746158985  8.722794959908363 19  8.573883161512027 19  C 8.424971363115695 19  8.293241695303553 18.936539746158985  8.1786941580756 18.809619238476955  L 0.1718213058419244 9.937875751503006  C 0.05727376861397484 9.810955243820974  0 9.664996659986638  0 9.5  C 0 9.335003340013358  0.05727376861397484 9.189044756179024  0.1718213058419244 9.062124248496994  L 8.1786941580756 0.19038076152304628  C 8.293241695303553 0.06346025384101472  8.424971363115695 0  8.573883161512027 0  C 8.722794959908363 0  8.854524627720505 0.06346025384101472  8.969072164948454 0.19038076152304628  L 9.828178694158074 1.1422845691382757  Z " fill-rule="nonzero" fill="#000000" stroke="none" transform="matrix(1 0 0 1 872 193 )" />
  </g>
</svg>