<?xml version="1.0" encoding="utf-8"?>
<svg version="1.1" xmlns:xlink="http://www.w3.org/1999/xlink" width="12px" height="12px" viewBox="224 84  12 12" xmlns="http://www.w3.org/2000/svg">
  <path d="M 224.5 90  A 5.5 5.5 0 0 1 230 84.5 A 5.5 5.5 0 0 1 235.5 90 A 5.5 5.5 0 0 1 230 95.5 A 5.5 5.5 0 0 1 224.5 90 Z " fill-rule="nonzero" fill="#f0f0f0" stroke="none" />
  <path d="M 224.5 90  A 5.5 5.5 0 0 1 230 84.5 A 5.5 5.5 0 0 1 235.5 90 A 5.5 5.5 0 0 1 230 95.5 A 5.5 5.5 0 0 1 224.5 90 Z " stroke-width="1" stroke="#797979" fill="none" />
  <path d="M 226.57142857142858 90  L 229.14285714285714 92.57142857142857  L 233.42857142857142 86.57142857142857  " stroke-width="2.571428571428571" stroke="#797979" fill="none" />
</svg>