<?xml version="1.0" encoding="utf-8"?>
<svg version="1.1" xmlns:xlink="http://www.w3.org/1999/xlink" width="50px" height="43px" xmlns="http://www.w3.org/2000/svg">
  <g transform="matrix(1 0 0 1 -35 -114 )">
    <path d="M 19.7005208333333 19.5489783653846  C 21.1675347222222 18.0932491987179  22.9340277777778 17.3653846153846  25 17.3653846153846  C 27.0659722222222 17.3653846153846  28.8324652777778 18.0932491987179  30.2994791666667 19.5489783653846  C 31.7664930555556 21.0047075320513  32.5 22.7576121794872  32.5 24.8076923076923  C 32.5 26.8577724358974  31.7664930555556 28.6106770833333  30.2994791666667 30.06640625  C 28.8324652777778 31.5221354166667  27.0659722222222 32.25  25 32.25  C 22.9340277777778 32.25  21.1675347222222 31.5221354166667  19.7005208333333 30.06640625  C 18.2335069444444 28.6106770833333  17.5 26.8577724358974  17.5 24.8076923076923  C 17.5 22.7576121794872  18.2335069444444 21.0047075320513  19.7005208333333 19.5489783653846  Z M 37.5 6.61538461538462  L 43.3333333333333 6.61538461538462  C 45.1736111111111 6.61538461538462  46.7447916666667 7.26141826923077  48.046875 8.55348557692308  C 49.3489583333333 9.84555288461539  50 11.4046474358974  50 13.2307692307692  L 50 36.3846153846154  C 50 38.2107371794872  49.3489583333333 39.7698317307692  48.046875 41.0618990384615  C 46.7447916666667 42.3539663461538  45.1736111111111 43  43.3333333333333 43  L 6.66666666666667 43  C 4.82638888888889 43  3.25520833333333 42.3539663461538  1.953125 41.0618990384615  C 0.651041666666667 39.7698317307692  0 38.2107371794872  0 36.3846153846154  L 0 13.2307692307692  C 0 11.4046474358974  0.651041666666667 9.84555288461539  1.953125 8.55348557692308  C 3.25520833333333 7.26141826923077  4.82638888888889 6.61538461538462  6.66666666666667 6.61538461538462  L 12.5 6.61538461538462  L 13.828125 3.10096153846154  C 14.1579861111111 2.2568108974359  14.7612847222222 1.52894631410256  15.6380208333333 0.917367788461537  C 16.5147569444444 0.305789262820517  17.4131944444444 0  18.3333333333333 0  L 31.6666666666667 0  C 32.5868055555556 0  33.4852430555556 0.305789262820517  34.3619791666667 0.917367788461537  C 35.2387152777778 1.52894631410256  35.8420138888889 2.2568108974359  36.171875 3.10096153846154  L 37.5 6.61538461538462  Z M 16.7578125 32.9864783653846  C 19.0407986111111 35.2519030448718  21.7881944444444 36.3846153846154  25 36.3846153846154  C 28.2118055555556 36.3846153846154  30.9592013888889 35.2519030448718  33.2421875 32.9864783653846  C 35.5251736111111 30.7210536858974  36.6666666666667 27.9947916666667  36.6666666666667 24.8076923076923  C 36.6666666666667 21.6205929487179  35.5251736111111 18.8943309294872  33.2421875 16.62890625  C 30.9592013888889 14.3634815705128  28.2118055555556 13.2307692307692  25 13.2307692307692  C 21.7881944444444 13.2307692307692  19.0407986111111 14.3634815705128  16.7578125 16.62890625  C 14.4748263888889 18.8943309294872  13.3333333333333 21.6205929487179  13.3333333333333 24.8076923076923  C 13.3333333333333 27.9947916666667  14.4748263888889 30.7210536858974  16.7578125 32.9864783653846  Z " fill-rule="nonzero" fill="#000000" stroke="none" transform="matrix(1 0 0 1 35 114 )" />
  </g>
</svg>