<?xml version="1.0" encoding="utf-8"?>
<svg version="1.1" xmlns:xlink="http://www.w3.org/1999/xlink" width="12px" height="12px" viewBox="342 196  12 12" xmlns="http://www.w3.org/2000/svg">
  <path d="M 342.5 202  A 5.5 5.5 0 0 1 348 196.5 A 5.5 5.5 0 0 1 353.5 202 A 5.5 5.5 0 0 1 348 207.5 A 5.5 5.5 0 0 1 342.5 202 Z " fill-rule="nonzero" fill="#f0f0f0" stroke="none" />
  <path d="M 342.5 202  A 5.5 5.5 0 0 1 348 196.5 A 5.5 5.5 0 0 1 353.5 202 A 5.5 5.5 0 0 1 348 207.5 A 5.5 5.5 0 0 1 342.5 202 Z " stroke-width="1" stroke="#797979" fill="none" />
  <path d="M 344.57142857142856 202  L 347.14285714285717 204.57142857142856  L 351.42857142857144 198.57142857142858  " stroke-width="2.571428571428571" stroke="#797979" fill="none" />
</svg>