<?xml version="1.0" encoding="utf-8"?>
<svg version="1.1" xmlns:xlink="http://www.w3.org/1999/xlink" width="12px" height="12px" viewBox="101 196  12 12" xmlns="http://www.w3.org/2000/svg">
  <path d="M 101.5 202  A 5.5 5.5 0 0 1 107 196.5 A 5.5 5.5 0 0 1 112.5 202 A 5.5 5.5 0 0 1 107 207.5 A 5.5 5.5 0 0 1 101.5 202 Z " fill-rule="nonzero" fill="#ffffff" stroke="none" />
  <path d="M 101.5 202  A 5.5 5.5 0 0 1 107 196.5 A 5.5 5.5 0 0 1 112.5 202 A 5.5 5.5 0 0 1 107 207.5 A 5.5 5.5 0 0 1 101.5 202 Z " stroke-width="1" stroke="#797979" fill="none" />
  <path d="M 103.57142857142857 202  L 106.14285714285714 204.57142857142856  L 110.42857142857143 198.57142857142858  " stroke-width="2.571428571428571" stroke="#797979" fill="none" />
</svg>