<?xml version="1.0" encoding="utf-8"?>
<svg version="1.1" xmlns:xlink="http://www.w3.org/1999/xlink" width="30px" height="23px" xmlns="http://www.w3.org/2000/svg">
  <g transform="matrix(1 0 0 1 -315 -43 )">
    <path d="M 29.458064516129 3.17508417508418  C 29.8193548387097 3.5364758698092  30 3.97530864197531  30 4.49158249158249  C 30 5.00785634118967  29.8193548387097 5.44668911335578  29.458064516129 5.80808080808081  L 15.4451612903226 19.8249158249158  L 12.8129032258065 22.4579124579125  C 12.4516129032258 22.8193041526375  12.0129032258065 23  11.4967741935484 23  C 10.9806451612903 23  10.541935483871 22.8193041526375  10.1806451612903 22.4579124579125  L 7.54838709677419 19.8249158249158  L 0.541935483870968 12.8164983164983  C 0.180645161290323 12.4551066217733  0 12.0162738496072  0 11.5  C 0 10.9837261503928  0.180645161290323 10.5448933782267  0.541935483870968 10.1835016835017  L 3.1741935483871 7.55050505050505  C 3.53548387096774 7.18911335578002  3.9741935483871 7.00841750841751  4.49032258064516 7.00841750841751  C 5.00645161290323 7.00841750841751  5.44516129032258 7.18911335578002  5.80645161290323 7.55050505050505  L 11.4967741935484 13.2617845117845  L 24.1935483870968 0.542087542087542  C 24.5548387096774 0.180695847362513  24.9935483870968 0  25.5096774193548 0  C 26.0258064516129 0  26.4645161290323 0.180695847362513  26.8258064516129 0.542087542087542  L 29.458064516129 3.17508417508418  Z " fill-rule="nonzero" fill="#000000" stroke="none" transform="matrix(1 0 0 1 315 43 )" />
  </g>
</svg>