<?xml version="1.0" encoding="utf-8"?>
<svg version="1.1" xmlns:xlink="http://www.w3.org/1999/xlink" width="30px" height="23px" xmlns="http://www.w3.org/2000/svg">
  <g transform="matrix(1 0 0 1 -315 -43 )">
    <path d="M 29.45806451612903 3.175084175084176  C 29.819354838709682 3.5364758698092023  30.000000000000007 3.9753086419753085  30 4.491582491582491  C 30.000000000000007 5.007856341189672  29.819354838709682 5.446689113355778  29.45806451612903 5.808080808080807  L 15.445161290322583 19.824915824915823  L 12.812903225806453 22.457912457912457  C 12.451612903225808 22.819304152637486  12.012903225806454 23  11.496774193548388 23  C 10.980645161290322 23  10.541935483870969 22.819304152637486  10.180645161290322 22.457912457912457  L 7.548387096774193 19.824915824915823  L 0.5419354838709678 12.816498316498318  C 0.18064516129032276 12.455106621773286  0 12.016273849607181  0 11.5  C 0 10.983726150392817  0.18064516129032276 10.54489337822671  0.5419354838709678 10.183501683501685  L 3.174193548387097 7.55050505050505  C 3.535483870967742 7.189113355780021  3.9741935483870976 7.008417508417506  4.490322580645161 7.008417508417509  C 5.006451612903227 7.008417508417506  5.445161290322581 7.189113355780021  5.806451612903226 7.55050505050505  L 11.496774193548388 13.26178451178451  L 24.193548387096772 0.5420875420875422  C 24.554838709677423 0.1806958473625132  24.993548387096777 0  25.50967741935484 0  C 26.025806451612905 0  26.46451612903226 0.1806958473625132  26.825806451612902 0.5420875420875422  L 29.45806451612903 3.175084175084176  Z " fill-rule="nonzero" fill="#000000" stroke="none" transform="matrix(1 0 0 1 315 43 )" />
  </g>
</svg>