<?xml version="1.0" encoding="utf-8"?>
<svg version="1.1" xmlns:xlink="http://www.w3.org/1999/xlink" width="12px" height="12px" viewBox="224 196  12 12" xmlns="http://www.w3.org/2000/svg">
  <path d="M 224.5 202  A 5.5 5.5 0 0 1 230 196.5 A 5.5 5.5 0 0 1 235.5 202 A 5.5 5.5 0 0 1 230 207.5 A 5.5 5.5 0 0 1 224.5 202 Z " fill-rule="nonzero" fill="#f0f0f0" stroke="none" />
  <path d="M 224.5 202  A 5.5 5.5 0 0 1 230 196.5 A 5.5 5.5 0 0 1 235.5 202 A 5.5 5.5 0 0 1 230 207.5 A 5.5 5.5 0 0 1 224.5 202 Z " stroke-width="1" stroke="#797979" fill="none" />
  <path d="M 226.571428571429 202  L 229.142857142857 204.571428571429  " stroke-width="2.57142857142857" stroke="#797979" fill="none" />
  <path d="M 229.142857142857 204.571428571429  L 233.428571428571 198.571428571429  " stroke-width="2.57142857142857" stroke="#797979" fill="none" />
</svg>