<?xml version="1.0" encoding="utf-8"?>
<svg version="1.1" xmlns:xlink="http://www.w3.org/1999/xlink" width="27px" height="15px" xmlns="http://www.w3.org/2000/svg">
  <g transform="matrix(1 0 0 1 -377 -71 )">
    <path d="M 3 3  L 22.5 3  L 22.5 12  L 3 12  L 3 3  Z M 24 13.125  L 24 9.75  L 25.5 9.75  L 25.5 5.25  L 24 5.25  L 24 1.875  C 24 1.765625  23.96484375 1.67578125  23.89453125 1.60546875  C 23.82421875 1.53515625  23.734375 1.5  23.625 1.5  L 1.875 1.5  C 1.765625 1.5  1.67578125 1.53515625  1.60546875 1.60546875  C 1.53515625 1.67578125  1.5 1.765625  2 1.875  L 2 13.125  C 1.5 13.234375  1.53515625 13.32421875  1.60546875 13.39453125  C 1.67578125 13.46484375  1.765625 13.5  1.875 13.5  L 23.625 13.5  C 23.734375 13.5  23.82421875 13.46484375  23.89453125 13.39453125  C 23.96484375 13.32421875  24 13.234375  24 13.125  Z M 26.560546875 4.189453125  C 26.853515625 4.482421875  27 4.8359375  27 5.25  L 27 9.75  C 27 10.1640625  26.853515625 10.517578125  26.560546875 10.810546875  C 26.267578125 11.103515625  25.9140625 11.25  25.5 11.25  L 25.5 13.125  C 25.5 13.640625  25.31640625 14.08203125  24.94921875 14.44921875  C 24.58203125 14.81640625  24.140625 15  23.625 15  L 1.875 15  C 1.359375 15  0.91796875 14.81640625  0.55078125 14.44921875  C 0.18359375 14.08203125  0 13.640625  0 13.125  L 0 1.875  C 0 1.359375  0.18359375 0.917968749999999  0.55078125 0.55078125  C 0.91796875 0.183593749999998  1.359375 0  1.875 0  L 23.625 0  C 24.140625 0  24.58203125 0.183593749999998  24.94921875 0.55078125  C 25.31640625 0.917968749999999  25.5 1.359375  25.5 1.875  L 25.5 3.75  C 25.9140625 3.75  26.267578125 3.896484375  26.560546875 4.189453125  Z " fill-rule="nonzero" fill="#000000" stroke="none" transform="matrix(1 0 0 1 377 71 )" />
  </g>
</svg>