<?xml version="1.0" encoding="utf-8"?>
<svg version="1.1" xmlns:xlink="http://www.w3.org/1999/xlink" width="19px" height="14px" xmlns="http://www.w3.org/2000/svg">
  <g transform="matrix(1 0 0 1 -352 -71 )">
    <path d="M 10.39969450101833 13.262365591397849  C 9.92888662593347 13.754121863799284  9.62898845892736 14  9.5 14  C 9.371011541072642 14  9.071113374066531 13.754121863799284  8.60030549898167 13.262365591397849  C 8.12949762389681 12.770609318996415  7.894093686354379 12.457825567502987  7.8940936863543785 12.324014336917562  C 7.894093686354379 12.109916367980885  8.095638153428379 11.929271206690562  8.498727087576375 11.782078853046595  C 8.901816021724372 11.634886499402628  9.235573659198915 11.561290322580644  9.5 11.561290322580644  C 9.764426340801087 11.561290322580644  10.098183978275628 11.634886499402628  10.501272912423625 11.782078853046595  C 10.904361846571623 11.929271206690562  11.10590631364562 12.109916367980885  11.10590631364562 12.324014336917562  C 11.10590631364562 12.457825567502987  10.870502376103191 12.770609318996415  10.39969450101833 13.262365591397849  Z M 13.016547861507128 10.527598566308244  C 12.529616429056349 11.029390681003584  12.228105906313646 11.280286738351254  12.112016293279023 11.280286738351254  C 12.099117447386288 11.280286738351254  11.970128988458928 11.196654719235363  11.725050916496945 11.029390681003584  C 11.479972844534963 10.862126642771802  11.152664630006791 10.694862604540022  10.743126272912424 10.527598566308244  C 10.33358791581806 10.360334528076466  9.91921249151392 10.276702508960573  9.5 10.276702508960573  C 9.080787508486084 10.276702508960573  8.66641208418194 10.360334528076466  8.256873727087576 10.527598566308244  C 7.847335369993211 10.694862604540022  7.52163951120163 10.862126642771802  7.279786150712831 11.029390681003584  C 7.0379327902240325 11.196654719235363  6.907331975560082 11.280286738351254  6.887983706720977 11.280286738351254  C 6.771894093686354 11.280286738351254  6.470383570943652 11.029390681003584  5.983452138492871 10.527598566308244  C 5.496520706042091 10.025806451612903  5.2530549898167 9.714695340501793  5.2530549898167 9.594265232974912  C 5.2530549898167 9.507287933094386  5.285302104548541 9.430346475507765  5.34979633401222 9.363440860215054  C 5.85285132382892 8.84826762246117  6.484894772572981 8.443488649940262  7.2459266802443985 8.14910394265233  C 8.006958587915818 7.854719235364396  8.758316361167687 7.70752688172043  9.5 7.70752688172043  C 10.241683638832317 7.70752688172043  10.993041412084182 7.854719235364396  11.7540733197556 8.14910394265233  C 12.51510522742702 8.443488649940262  13.14714867617108 8.84826762246117  13.65020366598778 9.363440860215054  C 13.71469789545146 9.430346475507765  13.7469450101833 9.507287933094386  13.7469450101833 9.594265232974912  C 13.7469450101833 9.714695340501793  13.503479293957911 10.025806451612903  13.016547861507128 10.527598566308244  Z M 15.64307535641548 7.797849462365591  C 15.159368635437884 8.299641577060932  14.862695179904957 8.550537634408602  14.7530549898167 8.550537634408602  C 14.682111337406655 8.550537634408602  14.607942973523423 8.523775388291515  14.530549898167006 8.470250896057347  C 13.653428377460965 7.767741935483871  12.840801086218603 7.250896057347671  12.092668024439918 6.919713261648746  C 11.344534962661237 6.588530465949821  10.48031228784793 6.422939068100359  9.5 6.422939068100359  C 8.951799049558725 6.422939068100359  8.401985743380857 6.496535244922343  7.850560081466395 6.643727598566309  C 7.299134419551934 6.790919952210274  6.818652410047521 6.968219832735961  6.409114052953157 7.1756272401433705  C 5.999575695858793 7.383034647550776  5.63357094365241 7.590442054958182  5.3110997963340125 7.797849462365591  C 4.988628649015616 8.005256869772998  4.733876442634081 8.182556750298684  4.546843177189409 8.329749103942653  C 4.3598099117447395 8.47694145758662  4.259843856076036 8.550537634408602  4.2469450101833 8.550537634408602  C 4.137304820095045 8.550537634408602  3.840631364562118 8.299641577060932  3.3569246435845215 7.797849462365591  C 2.873217922606925 7.296057347670251  2.6313645621181263 6.984946236559139  2.6313645621181263 6.864516129032259  C 2.6313645621181263 6.784229390681003  2.6636116768499662 6.71063321385902  2.7281059063136457 6.643727598566309  C 3.5794297352342164 5.7605734767025085  4.61133740665309 5.07479091995221  5.823828920570264 4.586379928315411  C 7.0363204344874415 4.097968936678614  8.261710794297352 3.853763440860215  9.5 3.853763440860215  C 10.738289205702648 3.853763440860215  11.96367956551256 4.097968936678614  13.176171079429734 4.586379928315411  C 14.388662593346913 5.07479091995221  15.420570264765782 5.7605734767025085  16.271894093686356 6.643727598566309  C 16.336388323150036 6.71063321385902  16.368635437881878 6.784229390681003  16.368635437881874 6.864516129032259  C 16.368635437881878 6.984946236559139  16.126782077393077 7.296057347670251  15.64307535641548 7.797849462365591  Z M 18.269602851323828 5.0781362007168465  C 17.782671418873047 5.579928315412187  17.48438560760353 5.8308243727598565  17.374745417515275 5.8308243727598565  C 17.30380176510523 5.8308243727598565  17.232858112695183 5.800716845878137  17.161914460285132 5.740501792114695  C 16.00746775288527 4.690083632019116  14.809487440597422 3.8989247311827953  13.567973523421589 3.367025089605735  C 12.326459606245757 2.8351254480286734  10.970468431771895 2.5691756272401434  9.5 2.5691756272401434  C 8.029531568228105 2.5691756272401434  6.673540393754243 2.8351254480286734  5.432026476578411 3.367025089605735  C 4.19051255940258 3.8989247311827953  2.992532247114732 4.690083632019116  1.8380855397148674 5.740501792114695  C 1.7671418873048204 5.800716845878137  1.6961982348947728 5.8308243727598565  1.625254582484725 5.8308243727598565  C 1.51561439239647 5.8308243727598565  1.2173285811269519 5.579928315412187  0.7303971486761711 5.0781362007168465  C 0.2434657162253904 4.576344086021505  0 4.265232974910394  0 4.144802867383513  C 0 4.057825567502986  0.032247114731839804 3.980884109916367  0.09674134419551936 3.9139784946236555  C 1.3027834351663274 2.6695340501792106  2.7377800407331976 1.7060931899641583  4.40173116089613 1.0236559139784946  C 6.065682281059063 0.34121863799283103  7.76510522742702 0  9.5 0  C 11.234894772572982 0  12.934317718940937 0.34121863799283103  14.598268839103868 1.0236559139784946  C 16.262219959266805 1.7060931899641583  17.697216564833674 2.6695340501792106  18.90325865580448 3.9139784946236555  C 18.967752885268162 3.980884109916367  19 4.057825567502986  19 4.144802867383513  C 19 4.265232974910394  18.75653428377461 4.576344086021505  18.269602851323828 5.0781362007168465  Z " fill-rule="nonzero" fill="#000000" stroke="none" transform="matrix(1 0 0 1 352 71 )" />
  </g>
</svg>