<?xml version="1.0" encoding="utf-8"?>
<svg version="1.1" xmlns:xlink="http://www.w3.org/1999/xlink" width="19px" height="14px" xmlns="http://www.w3.org/2000/svg">
  <g transform="matrix(1 0 0 1 -352 -71 )">
    <path d="M 10.3996945010183 13.2623655913978  C 9.92888662593347 13.7541218637993  9.62898845892736 14  9.5 14  C 9.37101154107264 14  9.07111337406653 13.7541218637993  8.60030549898167 13.2623655913978  C 8.12949762389681 12.7706093189964  7.89409368635438 12.457825567503  7.89409368635438 12.3240143369176  C 7.89409368635438 12.1099163679809  8.09563815342838 11.9292712066906  8.49872708757638 11.7820788530466  C 8.90181602172437 11.6348864994026  9.23557365919891 11.5612903225806  9.5 11.5612903225806  C 9.76442634080109 11.5612903225806  10.0981839782756 11.6348864994026  10.5012729124236 11.7820788530466  C 10.9043618465716 11.9292712066906  11.1059063136456 12.1099163679809  11.1059063136456 12.3240143369176  C 11.1059063136456 12.457825567503  10.8705023761032 12.7706093189964  10.3996945010183 13.2623655913978  Z M 13.0165478615071 10.5275985663082  C 12.5296164290563 11.0293906810036  12.2281059063136 11.2802867383513  12.112016293279 11.2802867383513  C 12.0991174473863 11.2802867383513  11.9701289884589 11.1966547192354  11.7250509164969 11.0293906810036  C 11.479972844535 10.8621266427718  11.1526646300068 10.69486260454  10.7431262729124 10.5275985663082  C 10.3335879158181 10.3603345280765  9.91921249151392 10.2767025089606  9.5 10.2767025089606  C 9.08078750848608 10.2767025089606  8.66641208418194 10.3603345280765  8.25687372708758 10.5275985663082  C 7.84733536999321 10.69486260454  7.52163951120163 10.8621266427718  7.27978615071283 11.0293906810036  C 7.03793279022403 11.1966547192354  6.90733197556008 11.2802867383513  6.88798370672098 11.2802867383513  C 6.77189409368635 11.2802867383513  6.47038357094365 11.0293906810036  5.98345213849287 10.5275985663082  C 5.49652070604209 10.0258064516129  5.2530549898167 9.71469534050179  5.2530549898167 9.59426523297491  C 5.2530549898167 9.50728793309439  5.28530210454854 9.43034647550776  5.34979633401222 9.36344086021505  C 5.85285132382892 8.84826762246117  6.48489477257298 8.44348864994026  7.2459266802444 8.14910394265233  C 8.00695858791582 7.8547192353644  8.75831636116769 7.70752688172043  9.5 7.70752688172043  C 10.2416836388323 7.70752688172043  10.9930414120842 7.8547192353644  11.7540733197556 8.14910394265233  C 12.515105227427 8.44348864994026  13.1471486761711 8.84826762246117  13.6502036659878 9.36344086021505  C 13.7146978954515 9.43034647550776  13.7469450101833 9.50728793309439  13.7469450101833 9.59426523297491  C 13.7469450101833 9.71469534050179  13.5034792939579 10.0258064516129  13.0165478615071 10.5275985663082  Z M 15.6430753564155 7.79784946236559  C 15.1593686354379 8.29964157706093  14.862695179905 8.5505376344086  14.7530549898167 8.5505376344086  C 14.6821113374067 8.5505376344086  14.6079429735234 8.52377538829152  14.530549898167 8.47025089605735  C 13.653428377461 7.76774193548387  12.8408010862186 7.25089605734767  12.0926680244399 6.91971326164875  C 11.3445349626612 6.58853046594982  10.4803122878479 6.42293906810036  9.5 6.42293906810036  C 8.95179904955872 6.42293906810036  8.40198574338086 6.49653524492234  7.8505600814664 6.64372759856631  C 7.29913441955193 6.79091995221027  6.81865241004752 6.96821983273596  6.40911405295316 7.17562724014337  C 5.99957569585879 7.38303464755078  5.63357094365241 7.59044205495818  5.31109979633401 7.79784946236559  C 4.98862864901562 8.005256869773  4.73387644263408 8.18255675029868  4.54684317718941 8.32974910394265  C 4.35980991174474 8.47694145758662  4.25984385607604 8.5505376344086  4.2469450101833 8.5505376344086  C 4.13730482009504 8.5505376344086  3.84063136456212 8.29964157706093  3.35692464358452 7.79784946236559  C 2.87321792260693 7.29605734767025  2.63136456211813 6.98494623655914  2.63136456211813 6.86451612903226  C 2.63136456211813 6.784229390681  2.66361167684997 6.71063321385902  2.72810590631365 6.64372759856631  C 3.57942973523422 5.76057347670251  4.61133740665309 5.07479091995221  5.82382892057026 4.58637992831541  C 7.03632043448744 4.09796893667861  8.26171079429735 3.85376344086021  9.5 3.85376344086021  C 10.7382892057026 3.85376344086021  11.9636795655126 4.09796893667861  13.1761710794297 4.58637992831541  C 14.3886625933469 5.07479091995221  15.4205702647658 5.76057347670251  16.2718940936864 6.64372759856631  C 16.33638832315 6.71063321385902  16.3686354378819 6.784229390681  16.3686354378819 6.86451612903226  C 16.3686354378819 6.98494623655914  16.1267820773931 7.29605734767025  15.6430753564155 7.79784946236559  Z M 18.2696028513238 5.07813620071685  C 17.782671418873 5.57992831541219  17.4843856076035 5.83082437275986  17.3747454175153 5.83082437275986  C 17.3038017651052 5.83082437275986  17.2328581126952 5.80071684587814  17.1619144602851 5.74050179211469  C 16.0074677528853 4.69008363201912  14.8094874405974 3.8989247311828  13.5679735234216 3.36702508960574  C 12.3264596062458 2.83512544802867  10.9704684317719 2.56917562724014  9.5 2.56917562724014  C 8.02953156822811 2.56917562724014  6.67354039375424 2.83512544802867  5.43202647657841 3.36702508960574  C 4.19051255940258 3.8989247311828  2.99253224711473 4.69008363201912  1.83808553971487 5.74050179211469  C 1.76714188730482 5.80071684587814  1.69619823489477 5.83082437275986  1.62525458248473 5.83082437275986  C 1.51561439239647 5.83082437275986  1.21732858112695 5.57992831541219  0.730397148676171 5.07813620071685  C 0.24346571622539 4.57634408602151  0 4.26523297491039  0 4.14480286738351  C 0 4.05782556750299  0.0322471147318398 3.98088410991637  0.0967413441955194 3.91397849462366  C 1.30278343516633 2.66953405017921  2.7377800407332 1.70609318996416  4.40173116089613 1.02365591397849  C 6.06568228105906 0.341218637992831  7.76510522742702 0  9.5 0  C 11.234894772573 0  12.9343177189409 0.341218637992831  14.5982688391039 1.02365591397849  C 16.2622199592668 1.70609318996416  17.6972165648337 2.66953405017921  18.9032586558045 3.91397849462366  C 18.9677528852682 3.98088410991637  19 4.05782556750299  19 4.14480286738351  C 19 4.26523297491039  18.7565342837746 4.57634408602151  18.2696028513238 5.07813620071685  Z " fill-rule="nonzero" fill="#000000" stroke="none" transform="matrix(1 0 0 1 352 71 )" />
  </g>
</svg>