<?xml version="1.0" encoding="utf-8"?>
<svg version="1.1" xmlns:xlink="http://www.w3.org/1999/xlink" width="20px" height="21px" xmlns="http://www.w3.org/2000/svg">
  <g transform="matrix(1 0 0 1 -160 -219 )">
    <path d="M 19.142857142857142 15.555555555555555  C 19.506493506493506 15.555555555555555  19.75757575757576 15.632523148148149  19.896103896103895 15.786458333333334  C 20.034632034632036 15.94039351851852  19.991341991341994 16.082175925925924  19.766233766233768 16.211805555555554  L 10.675324675324676 20.87847222222222  C 10.502164502164504 20.95949074074074  10.303030303030303 21  10.077922077922077 21  C 9.835497835497836 21  9.627705627705629 20.95949074074074  9.454545454545455 20.87847222222222  L 0.2337662337662338 16.211805555555554  C 0.008658008658008639 16.082175925925924  -0.03463203463203465 15.94039351851852  0.1038961038961039 15.786458333333334  C 0.25974025974025977 15.632523148148149  0.5108225108225107 15.555555555555555  0.8571428571428572 15.555555555555555  L 7 15.555555555555555  L 7 0.3888888888888883  C 6.675324675324675 0.2754629629629607  6.753246753246753 0.18229166666666718  6.909090909090909 0.10937500000000078  C 7.0649350649350655 0.03645833333333437  7.264069264069265 0  7.5064935064935066 0  L 12.493506493506494 0  C 12.735930735930737 0  12.935064935064934 0.03645833333333437  13.09090909090909 0.10937500000000078  C 13.246753246753247 0.18229166666666718  13.324675324675326 0.2754629629629607  13 0.3888888888888883  L 13 15.555555555555555  L 19.142857142857142 15.555555555555555  Z " fill-rule="nonzero" fill="#797979" stroke="none" transform="matrix(1 0 0 1 160 219 )" />
  </g>
</svg>