<?xml version="1.0" encoding="utf-8"?>
<svg version="1.1" xmlns:xlink="http://www.w3.org/1999/xlink" width="22px" height="24px" xmlns="http://www.w3.org/2000/svg">
  <g transform="matrix(1 0 0 1 -151 -183 )">
    <path d="M 21.0571428571429 17.7777777777778  C 21.4571428571429 17.7777777777778  21.7333333333333 17.8657407407407  21.8857142857143 18.0416666666667  C 22.0380952380952 18.2175925925926  21.9904761904762 18.3796296296296  21.7428571428571 18.5277777777778  L 11.7428571428571 23.8611111111111  C 11.552380952381 23.9537037037037  11.3333333333333 24  11.0857142857143 24  C 10.8190476190476 24  10.5904761904762 23.9537037037037  10.4 23.8611111111111  L 0.257142857142857 18.5277777777778  C 0.0095238095238095 18.3796296296296  -0.0380952380952381 18.2175925925926  0.114285714285714 18.0416666666667  C 0.285714285714286 17.8657407407407  0.561904761904762 17.7777777777778  0.942857142857143 17.7777777777778  L 7.34285714285714 17.7777777777778  L 7.34285714285714 0.444444444444444  C 7.34285714285714 0.314814814814812  7.42857142857143 0.208333333333334  7.6 0.125000000000001  C 7.77142857142857 0.0416666666666679  7.99047619047619 0  8.25714285714286 0  L 13.7428571428571 0  C 14.0095238095238 0  14.2285714285714 0.0416666666666679  14.4 0.125000000000001  C 14.5714285714286 0.208333333333334  14.6571428571429 0.314814814814812  14.6571428571429 0.444444444444444  L 14.6571428571429 17.7777777777778  L 21.0571428571429 17.7777777777778  Z " fill-rule="nonzero" fill="#797979" stroke="none" transform="matrix(1 0 0 1 151 183 )" />
  </g>
</svg>