<?xml version="1.0" encoding="utf-8"?>
<svg version="1.1" xmlns:xlink="http://www.w3.org/1999/xlink" width="37px" height="37px" xmlns="http://www.w3.org/2000/svg">
  <g transform="matrix(1 0 0 1 -361 -141 )">
    <path d="M 36.5423177083333 30.14921875  C 36.8474392361111 30.5153645833333  37 30.9489583333333  37 31.45  L 37 35.15  C 37 35.6510416666667  36.8474392361111 36.0846354166667  36.5423177083333 36.45078125  C 36.2371961805556 36.8169270833333  35.8758680555556 37  35.4583333333333 37  L 1.54166666666667 37  C 1.12413194444444 37  0.762803819444444 36.8169270833333  0.457682291666667 36.45078125  C 0.152560763888889 36.0846354166667  0 35.6510416666667  0 35.15  L 0 31.45  C 0 30.9489583333333  0.152560763888889 30.5153645833333  0.457682291666667 30.14921875  C 0.762803819444444 29.7830729166667  1.12413194444444 29.6  1.54166666666667 29  L 35.4583333333333 29  C 35.8758680555556 29.6  36.2371961805556 29.7830729166667  36.5423177083333 30.14921875  Z M 36.5423177083333 15.34921875  C 36.8474392361111 15.7153645833333  37 16.1489583333333  37 16.65  L 37 20.35  C 37 20.8510416666667  36.8474392361111 21.2846354166667  36.5423177083333 21.65078125  C 36.2371961805556 22.0169270833333  35.8758680555556 22.2  35.4583333333333 22  L 1.54166666666667 22  C 1.12413194444444 22.2  0.762803819444444 22.0169270833333  0.457682291666667 21.65078125  C 0.152560763888889 21.2846354166667  0 20.8510416666667  0 20.35  L 0 16.65  C 0 16.1489583333333  0.152560763888889 15.7153645833333  0.457682291666667 15.34921875  C 0.762803819444444 14.9830729166667  1.12413194444444 14.8  1.54166666666667 15  L 35.4583333333333 15  C 35.8758680555556 14.8  36.2371961805556 14.9830729166667  36.5423177083333 15.34921875  Z M 36.5423177083333 0.549218750000002  C 36.8474392361111 0.915364583333331  37 1.34895833333333  37 1.85  L 37 5.55  C 37 6.05104166666666  36.8474392361111 6.48463541666666  36.5423177083333 6.85078125  C 36.2371961805556 7.21692708333333  35.8758680555556 7.4  35.4583333333333 8  L 1.54166666666667 8  C 1.12413194444444 7.4  0.762803819444444 7.21692708333333  0.457682291666667 6.85078125  C 0.152560763888889 6.48463541666666  0 6.05104166666666  0 5.55  L 0 1.85  C 0 1.34895833333333  0.152560763888889 0.915364583333331  0.457682291666667 0.549218750000002  C 0.762803819444444 0.183072916666664  1.12413194444444 0  1.54166666666667 0  L 35.4583333333333 0  C 35.8758680555556 0  36.2371961805556 0.183072916666664  36.5423177083333 0.549218750000002  Z " fill-rule="nonzero" fill="#4abdac" stroke="none" transform="matrix(1 0 0 1 361 141 )" />
  </g>
</svg>