<?xml version="1.0" encoding="utf-8"?>
<svg version="1.1" xmlns:xlink="http://www.w3.org/1999/xlink" width="37px" height="37px" xmlns="http://www.w3.org/2000/svg">
  <g transform="matrix(1 0 0 1 -361 -141 )">
    <path d="M 36.542317708333336 30.14921875  C 36.84743923611111 30.515364583333337  37 30.948958333333337  37 31.45  L 37 35.15  C 37 35.651041666666664  36.84743923611111 36.084635416666664  36.542317708333336 36.45078125  C 36.23719618055556 36.81692708333333  35.87586805555556 37  35.458333333333336 37  L 1.5416666666666665 37  C 1.1241319444444446 37  0.7628038194444444 36.81692708333333  0.45768229166666663 36.45078125  C 0.1525607638888889 36.084635416666664  0 35.651041666666664  0 35.15  L 0 31.45  C 0 30.948958333333337  0.1525607638888889 30.515364583333337  0.45768229166666663 30.14921875  C 0.7628038194444444 29.783072916666665  1.1241319444444446 29.6  1.5416666666666665 29  L 35.458333333333336 29  C 35.87586805555556 29.6  36.23719618055556 29.783072916666665  36.542317708333336 30.14921875  Z M 36.542317708333336 15.349218749999999  C 36.84743923611111 15.715364583333331  37 16.148958333333333  37 16.65  L 37 20.35  C 37 20.851041666666664  36.84743923611111 21.284635416666664  36.542317708333336 21.65078125  C 36.23719618055556 22.016927083333332  35.87586805555556 22.2  35.458333333333336 22  L 1.5416666666666665 22  C 1.1241319444444446 22.2  0.7628038194444444 22.016927083333332  0.45768229166666663 21.65078125  C 0.1525607638888889 21.284635416666664  0 20.851041666666664  0 20.35  L 0 16.65  C 0 16.148958333333333  0.1525607638888889 15.715364583333331  0.45768229166666663 15.349218749999999  C 0.7628038194444444 14.98307291666667  1.1241319444444446 14.8  1.5416666666666665 15  L 35.458333333333336 15  C 35.87586805555556 14.8  36.23719618055556 14.98307291666667  36.542317708333336 15.349218749999999  Z M 36.542317708333336 0.5492187500000016  C 36.84743923611111 0.9153645833333306  37 1.3489583333333306  37 1.8500000000000016  L 37 5.550000000000001  C 37 6.051041666666664  36.84743923611111 6.484635416666664  36.542317708333336 6.850781250000001  C 36.23719618055556 7.21692708333333  35.87586805555556 7.399999999999999  35.458333333333336 8  L 1.5416666666666665 8  C 1.1241319444444446 7.399999999999999  0.7628038194444444 7.21692708333333  0.45768229166666663 6.850781250000001  C 0.1525607638888889 6.484635416666664  0 6.051041666666664  0 5.550000000000001  L 0 1.8500000000000016  C 0 1.3489583333333306  0.1525607638888889 0.9153645833333306  0.45768229166666663 0.5492187500000016  C 0.7628038194444444 0.18307291666666448  1.1241319444444446 0  1.5416666666666665 0  L 35.458333333333336 0  C 35.87586805555556 0  36.23719618055556 0.18307291666666448  36.542317708333336 0.5492187500000016  Z " fill-rule="nonzero" fill="#4abdac" stroke="none" transform="matrix(1 0 0 1 361 141 )" />
  </g>
</svg>