<?xml version="1.0" encoding="utf-8"?>
<svg version="1.1" xmlns:xlink="http://www.w3.org/1999/xlink" width="573px" height="325px" xmlns="http://www.w3.org/2000/svg">
  <defs>
    <mask fill="white" id="clip89">
      <path d="M 0 325  L 0 35.7323232323236  L 0 0  L 173.931314623338 0  L 573 0  L 573 325  L 276.706161637476 325  L 0 325  Z " fill-rule="evenodd" />
    </mask>
  </defs>
  <g transform="matrix(1 0 0 1 -778 -138 )">
    <path d="M 0 325  L 0 35.7323232323236  L 0 0  L 173.931314623338 0  L 573 0  L 573 325  L 276.706161637476 325  L 0 325  Z " fill-rule="nonzero" fill="#ffffff" stroke="none" fill-opacity="0" transform="matrix(1 0 0 1 778 138 )" />
    <path d="M 0 325  L 0 35.7323232323236  L 0 0  L 173.931314623338 0  L 573 0  L 573 325  L 276.706161637476 325  L 0 325  Z " stroke-width="4" stroke-dasharray="18,8,4,8" stroke="#4abdac" fill="none" transform="matrix(1 0 0 1 778 138 )" mask="url(#clip89)" />
  </g>
</svg>