<?xml version="1.0" encoding="utf-8"?>
<svg version="1.1" xmlns:xlink="http://www.w3.org/1999/xlink" width="25px" height="25px" xmlns="http://www.w3.org/2000/svg">
  <g transform="matrix(1 0 0 1 -33 -114 )">
    <path d="M 45.5 114  C 52.5 114  58 119.5  58 126.5  C 58 133.5  52.5 139  45.5 139  C 38.5 139  33 133.5  33 126.5  C 33 119.5  38.5 114  45.5 114  Z " fill-rule="nonzero" fill="#ffffff" stroke="none" />
    <path d="M 45.5 114.5  C 52.22 114.5  57.5 119.78  57.5 126.5  C 57.5 133.22  52.22 138.5  45.5 138.5  C 38.78 138.5  33.5 133.22  33.5 126.5  C 33.5 119.78  38.78 114.5  45.5 114.5  Z " stroke-width="1" stroke="#fad280" fill="none" />
  </g>
</svg>