<?xml version="1.0" encoding="utf-8"?>
<svg version="1.1" xmlns:xlink="http://www.w3.org/1999/xlink" width="25px" height="25px" xmlns="http://www.w3.org/2000/svg">
  <g transform="matrix(1 0 0 1 -26 -1347 )">
    <path d="M 38.5 1347  C 45.5 1347  51 1352.5  51 1359.5  C 51 1366.5  45.5 1372  38.5 1372  C 31.5 1372  26 1366.5  26 1359.5  C 26 1352.5  31.5 1347  38.5 1347  Z " fill-rule="nonzero" fill="#ffffff" stroke="none" />
    <path d="M 38.5 1347.5  C 45.22 1347.5  50.5 1352.78  50.5 1359.5  C 50.5 1366.22  45.22 1371.5  38.5 1371.5  C 31.78 1371.5  26.5 1366.22  26.5 1359.5  C 26.5 1352.78  31.78 1347.5  38.5 1347.5  Z " stroke-width="1" stroke="#4abdac" fill="none" />
  </g>
</svg>