<?xml version="1.0" encoding="utf-8"?>
<svg version="1.1" xmlns:xlink="http://www.w3.org/1999/xlink" width="25px" height="25px" xmlns="http://www.w3.org/2000/svg">
  <g transform="matrix(1 0 0 1 -31 -1602 )">
    <path d="M 43.5 1602  C 50.5 1602  56 1607.5  56 1614.5  C 56 1621.5  50.5 1627  43.5 1627  C 36.5 1627  31 1621.5  31 1614.5  C 31 1607.5  36.5 1602  43.5 1602  Z " fill-rule="nonzero" fill="#ffffff" stroke="none" />
    <path d="M 43.5 1602.5  C 50.22 1602.5  55.5 1607.78  55.5 1614.5  C 55.5 1621.22  50.22 1626.5  43.5 1626.5  C 36.78 1626.5  31.5 1621.22  31.5 1614.5  C 31.5 1607.78  36.78 1602.5  43.5 1602.5  Z " stroke-width="1" stroke="#4abdac" fill="none" />
  </g>
</svg>