<?xml version="1.0" encoding="utf-8"?>
<svg version="1.1" xmlns:xlink="http://www.w3.org/1999/xlink" width="8px" height="13px" xmlns="http://www.w3.org/2000/svg">
  <g transform="matrix(1 0 0 1 -374 -172 )">
    <path d="M 7.86254295532646 6.200400801603207  C 7.954180985108821 6.287241148964595  8 6.387107548430193  8 6.5  C 8 6.612892451569805  7.954180985108821 6.712758851035403  7.86254295532646 6.799599198396793  L 1.4570446735395188 12.869739478957916  C 1.3654066437571593 12.956579826319306  1.2600229095074456 13  1.140893470790378 13  C 1.0217640320733106 13  0.9163802978235969 12.956579826319306  0.8247422680412371 12.869739478957916  L 0.13745704467353953 12.218436873747496  C 0.04581901489117987 12.131596526386105  0 12.031730126920507  0 11.918837675350701  C 0 11.805945223780894  0.04581901489117987 11.706078824315298  0.13745704467353953 11.619238476953909  L 5.5395189003436425 6.5  L 0.13745704467353953 1.3807615230460921  C 0.04581901489117987 1.293921175684702  0 1.1940547762191045  0 1.081162324649299  C 0 0.9682698730794906  0.04581901489117987 0.8684034736138929  0.13745704467353953 0.7815631262525043  L 0.8247422680412371 0.1302605210420843  C 0.9163802978235969 0.043420173680694285  1.0217640320733106 0  1.140893470790378 0  C 1.2600229095074456 0  1.3654066437571593 0.043420173680694285  1.4570446735395188 0.1302605210420843  L 7.86254295532646 6.200400801603207  Z " fill-rule="nonzero" fill="#000000" stroke="none" transform="matrix(1 0 0 1 374 172 )" />
  </g>
</svg>