<?xml version="1.0" encoding="utf-8"?>
<svg version="1.1" xmlns:xlink="http://www.w3.org/1999/xlink" width="68px" height="23px" xmlns="http://www.w3.org/2000/svg">
  <defs>
    <mask fill="white" id="clip16">
      <path d="M 0 16  L 0 7  C 0 3.0799999999999845  3.0800000000000125 0  7 0  L 26.66666666666788 0  L 61 0  C 64.92000000000002 0  68 3.0799999999999845  68 7  L 68 16  C 68 19.920000000000016  64.92000000000002 23  61 23  L 7 23  C 3.0800000000000125 23  0 19.920000000000016  0 16  Z " fill-rule="evenodd" />
    </mask>
  </defs>
  <g transform="matrix(1 0 0 1 -206 -411 )">
    <path d="M 0 16  L 0 7  C 0 3.0799999999999845  3.0800000000000125 0  7 0  L 26.66666666666788 0  L 61 0  C 64.92000000000002 0  68 3.0799999999999845  68 7  L 68 16  C 68 19.920000000000016  64.92000000000002 23  61 23  L 7 23  C 3.0800000000000125 23  0 19.920000000000016  0 16  Z " fill-rule="nonzero" fill="#ffffff" stroke="none" transform="matrix(1 0 0 1 206 411 )" />
    <path d="M 0 16  L 0 7  C 0 3.0799999999999845  3.0800000000000125 0  7 0  L 26.66666666666788 0  L 61 0  C 64.92000000000002 0  68 3.0799999999999845  68 7  L 68 16  C 68 19.920000000000016  64.92000000000002 23  61 23  L 7 23  C 3.0800000000000125 23  0 19.920000000000016  0 16  Z " stroke-width="2" stroke="#797979" fill="none" transform="matrix(1 0 0 1 206 411 )" mask="url(#clip16)" />
  </g>
</svg>