<?xml version="1.0" encoding="utf-8"?>
<svg version="1.1" xmlns:xlink="http://www.w3.org/1999/xlink" width="29px" height="29px" xmlns="http://www.w3.org/2000/svg">
  <g transform="matrix(1 0 0 1 -270 -587 )">
    <path d="M 22.599609375 16.557942708333336  C 22.838758680555557 16.318793402777775  22.958333333333332 16.035590277777775  22.958333333333332 15.708333333333336  L 22.958333333333332 13.291666666666668  C 22.958333333333332 12.96440972222222  22.838758680555557 12.68120659722222  22.599609375 12.442057291666668  C 22.360460069444446 12.202907986111112  22.077256944444446 12.083333333333332  21.75 12.083333333333332  L 16.916666666666668 12.083333333333332  L 16.916666666666668 7.25  C 16.916666666666668 6.922743055555553  16.797092013888893 6.639539930555553  16.557942708333332 6.400390625  C 16.31879340277778 6.161241319444444  16.03559027777778 6.041666666666668  15.708333333333332 6.041666666666668  L 13.291666666666666 6.041666666666668  C 12.964409722222223 6.041666666666668  12.681206597222223 6.161241319444444  12.442057291666666 6.400390625  C 12.202907986111112 6.639539930555553  12.083333333333334 6.922743055555553  12.083333333333334 7.25  L 12.083333333333334 12.083333333333332  L 7.25 12.083333333333332  C 6.922743055555556 12.083333333333332  6.639539930555556 12.202907986111112  6.400390625 12.442057291666668  C 6.161241319444445 12.68120659722222  6.041666666666667 12.96440972222222  6.041666666666667 13.291666666666668  L 6.041666666666667 15.708333333333336  C 6.041666666666667 16.035590277777775  6.161241319444445 16.318793402777775  6.400390625 16.557942708333336  C 6.639539930555556 16.79709201388889  6.922743055555556 16.916666666666664  7.25 16.916666666666664  L 12.083333333333334 16.916666666666664  L 12.083333333333334 21.75  C 12.083333333333334 22.077256944444443  12.202907986111112 22.360460069444443  12.442057291666666 22.599609375  C 12.681206597222223 22.838758680555557  12.964409722222223 22.958333333333332  13.291666666666666 22.958333333333332  L 15.708333333333332 22.958333333333332  C 16.03559027777778 22.958333333333332  16.31879340277778 22.838758680555557  16.557942708333332 22.599609375  C 16.797092013888893 22.360460069444443  16.916666666666668 22.077256944444443  16.916666666666668 21.75  L 16.916666666666668 16.916666666666664  L 21.75 16.916666666666664  C 22.077256944444446 16.916666666666664  22.360460069444446 16.79709201388889  22.599609375 16.557942708333336  Z M 27.055338541666668 7.2216796875  C 28.351779513888886 9.443250868055554  29 11.869357638888886  29 14.5  C 29 17.13064236111111  28.351779513888886 19.55674913194444  27.055338541666668 21.7783203125  C 25.758897569444446 23.999891493055557  23.999891493055557 25.758897569444443  21.7783203125 27.055338541666668  C 19.556749131944446 28.351779513888893  17.13064236111111 29  14.5 29  C 11.86935763888889 29  9.443250868055555 28.351779513888893  7.2216796875 27.055338541666668  C 5.000108506944445 25.758897569444443  3.241102430555556 23.999891493055557  1.9446614583333335 21.7783203125  C 0.648220486111111 19.55674913194444  0 17.13064236111111  0 14.5  C 0 11.869357638888886  0.648220486111111 9.443250868055554  1.9446614583333335 7.2216796875  C 3.241102430555556 5.000108506944444  5.000108506944445 3.2411024305555527  7.2216796875 1.9446614583333321  C 9.443250868055555 0.6482204861111086  11.86935763888889 0  14.5 0  C 17.13064236111111 0  19.556749131944446 0.6482204861111086  21.7783203125 1.9446614583333321  C 23.999891493055557 3.2411024305555527  25.758897569444446 5.000108506944444  27.055338541666668 7.2216796875  Z " fill-rule="nonzero" fill="#f6ba16" stroke="none" transform="matrix(1 0 0 1 270 587 )" />
  </g>
</svg>