<?xml version="1.0" encoding="utf-8"?>
<svg version="1.1" xmlns:xlink="http://www.w3.org/1999/xlink" width="28px" height="28px" xmlns="http://www.w3.org/2000/svg">
  <g transform="matrix(1 0 0 1 -174 -589 )">
    <path d="M 21.8203125 15.986979166666668  C 22.05121527777778 15.756076388888888  22.166666666666664 15.482638888888888  22.166666666666664 15.166666666666668  L 22.166666666666664 12.833333333333334  C 22.166666666666664 12.517361111111109  22.05121527777778 12.243923611111109  21.8203125 12.013020833333334  C 21.589409722222225 11.782118055555557  21.315972222222225 11.666666666666666  21 12  L 7 12  C 6.684027777777779 11.666666666666666  6.410590277777779 11.782118055555557  6.1796875 12.013020833333334  C 5.948784722222222 12.243923611111109  5.833333333333334 12.517361111111109  5.833333333333334 12.833333333333334  L 5.833333333333334 15.166666666666668  C 5.833333333333334 15.482638888888888  5.948784722222222 15.756076388888888  6.1796875 15.986979166666668  C 6.410590277777779 16.217881944444443  6.684027777777779 16.333333333333332  7 16  L 21 16  C 21.315972222222225 16.333333333333332  21.589409722222225 16.217881944444443  21.8203125 15.986979166666668  Z M 26.122395833333336 6.97265625  C 27.37413194444444 9.117621527777775  28 11.460069444444441  28 14  C 28 16.539930555555557  27.37413194444444 18.882378472222218  26.122395833333336 21.02734375  C 24.870659722222225 23.17230902777778  23.17230902777778 24.87065972222222  21.02734375 26.122395833333336  C 18.882378472222225 27.374131944444446  16.539930555555557 28  14 28  C 11.460069444444445 28  9.117621527777779 27.374131944444446  6.97265625 26.122395833333336  C 4.827690972222222 24.87065972222222  3.129340277777778 23.17230902777778  1.8776041666666667 21.02734375  C 0.6258680555555555 18.882378472222218  0 16.539930555555557  0 14  C 0 11.460069444444441  0.6258680555555555 9.117621527777775  1.8776041666666667 6.97265625  C 3.129340277777778 4.827690972222221  4.827690972222222 3.129340277777775  6.97265625 1.8776041666666656  C 9.117621527777779 0.6258680555555531  11.460069444444445 0  14 0  C 16.539930555555557 0  18.882378472222225 0.6258680555555531  21.02734375 1.8776041666666656  C 23.17230902777778 3.129340277777775  24.870659722222225 4.827690972222221  26.122395833333336 6.97265625  Z " fill-rule="nonzero" fill="#999999" stroke="none" fill-opacity="0.5882352941176471" transform="matrix(1 0 0 1 174 589 )" />
  </g>
</svg>