<?xml version="1.0" encoding="utf-8"?>
<svg version="1.1" xmlns:xlink="http://www.w3.org/1999/xlink" width="29px" height="29px" xmlns="http://www.w3.org/2000/svg">
  <g transform="matrix(1 0 0 1 -270 -587 )">
    <path d="M 22.599609375 16.5579427083333  C 22.8387586805556 16.3187934027778  22.9583333333333 16.0355902777778  22.9583333333333 15.7083333333333  L 22.9583333333333 13.2916666666667  C 22.9583333333333 12.9644097222222  22.8387586805556 12.6812065972222  22.599609375 12.4420572916667  C 22.3604600694444 12.2029079861111  22.0772569444444 12.0833333333333  21.75 12.0833333333333  L 16.9166666666667 12.0833333333333  L 16.9166666666667 7.25  C 16.9166666666667 6.92274305555555  16.7970920138889 6.63953993055555  16.5579427083333 6.400390625  C 16.3187934027778 6.16124131944444  16.0355902777778 6.04166666666667  15.7083333333333 6.04166666666667  L 13.2916666666667 6.04166666666667  C 12.9644097222222 6.04166666666667  12.6812065972222 6.16124131944444  12.4420572916667 6.400390625  C 12.2029079861111 6.63953993055555  12.0833333333333 6.92274305555555  12.0833333333333 7.25  L 12.0833333333333 12.0833333333333  L 7.25 12.0833333333333  C 6.92274305555556 12.0833333333333  6.63953993055556 12.2029079861111  6.400390625 12.4420572916667  C 6.16124131944444 12.6812065972222  6.04166666666667 12.9644097222222  6.04166666666667 13.2916666666667  L 6.04166666666667 15.7083333333333  C 6.04166666666667 16.0355902777778  6.16124131944444 16.3187934027778  6.400390625 16.5579427083333  C 6.63953993055556 16.7970920138889  6.92274305555556 16.9166666666667  7.25 16.9166666666667  L 12.0833333333333 16.9166666666667  L 12.0833333333333 21.75  C 12.0833333333333 22.0772569444444  12.2029079861111 22.3604600694444  12.4420572916667 22.599609375  C 12.6812065972222 22.8387586805556  12.9644097222222 22.9583333333333  13.2916666666667 22.9583333333333  L 15.7083333333333 22.9583333333333  C 16.0355902777778 22.9583333333333  16.3187934027778 22.8387586805556  16.5579427083333 22.599609375  C 16.7970920138889 22.3604600694444  16.9166666666667 22.0772569444444  16.9166666666667 21.75  L 16.9166666666667 16.9166666666667  L 21.75 16.9166666666667  C 22.0772569444444 16.9166666666667  22.3604600694444 16.7970920138889  22.599609375 16.5579427083333  Z M 27.0553385416667 7.2216796875  C 28.3517795138889 9.44325086805555  29 11.8693576388889  29 14.5  C 29 17.1306423611111  28.3517795138889 19.5567491319444  27.0553385416667 21.7783203125  C 25.7588975694444 23.9998914930556  23.9998914930556 25.7588975694444  21.7783203125 27.0553385416667  C 19.5567491319444 28.3517795138889  17.1306423611111 29  14.5 29  C 11.8693576388889 29  9.44325086805556 28.3517795138889  7.2216796875 27.0553385416667  C 5.00010850694444 25.7588975694444  3.24110243055556 23.9998914930556  1.94466145833333 21.7783203125  C 0.648220486111111 19.5567491319444  0 17.1306423611111  0 14.5  C 0 11.8693576388889  0.648220486111111 9.44325086805555  1.94466145833333 7.2216796875  C 3.24110243055556 5.00010850694444  5.00010850694444 3.24110243055555  7.2216796875 1.94466145833333  C 9.44325086805556 0.648220486111109  11.8693576388889 0  14.5 0  C 17.1306423611111 0  19.5567491319444 0.648220486111109  21.7783203125 1.94466145833333  C 23.9998914930556 3.24110243055555  25.7588975694444 5.00010850694444  27.0553385416667 7.2216796875  Z " fill-rule="nonzero" fill="#f6ba16" stroke="none" transform="matrix(1 0 0 1 270 587 )" />
  </g>
</svg>