<?xml version="1.0" encoding="utf-8"?>
<svg version="1.1" xmlns:xlink="http://www.w3.org/1999/xlink" width="28px" height="28px" xmlns="http://www.w3.org/2000/svg">
  <g transform="matrix(1 0 0 1 -174 -589 )">
    <path d="M 21.8203125 15.9869791666667  C 22.0512152777778 15.7560763888889  22.1666666666667 15.4826388888889  22.1666666666667 15.1666666666667  L 22.1666666666667 12.8333333333333  C 22.1666666666667 12.5173611111111  22.0512152777778 12.2439236111111  21.8203125 12.0130208333333  C 21.5894097222222 11.7821180555556  21.3159722222222 11.6666666666667  21 12  L 7 12  C 6.68402777777778 11.6666666666667  6.41059027777778 11.7821180555556  6.1796875 12.0130208333333  C 5.94878472222222 12.2439236111111  5.83333333333333 12.5173611111111  5.83333333333333 12.8333333333333  L 5.83333333333333 15.1666666666667  C 5.83333333333333 15.4826388888889  5.94878472222222 15.7560763888889  6.1796875 15.9869791666667  C 6.41059027777778 16.2178819444444  6.68402777777778 16.3333333333333  7 16  L 21 16  C 21.3159722222222 16.3333333333333  21.5894097222222 16.2178819444444  21.8203125 15.9869791666667  Z M 26.1223958333333 6.97265625  C 27.3741319444444 9.11762152777778  28 11.4600694444444  28 14  C 28 16.5399305555556  27.3741319444444 18.8823784722222  26.1223958333333 21.02734375  C 24.8706597222222 23.1723090277778  23.1723090277778 24.8706597222222  21.02734375 26.1223958333333  C 18.8823784722222 27.3741319444444  16.5399305555556 28  14 28  C 11.4600694444444 28  9.11762152777778 27.3741319444444  6.97265625 26.1223958333333  C 4.82769097222222 24.8706597222222  3.12934027777778 23.1723090277778  1.87760416666667 21.02734375  C 0.625868055555555 18.8823784722222  0 16.5399305555556  0 14  C 0 11.4600694444444  0.625868055555555 9.11762152777778  1.87760416666667 6.97265625  C 3.12934027777778 4.82769097222222  4.82769097222222 3.12934027777778  6.97265625 1.87760416666667  C 9.11762152777778 0.625868055555553  11.4600694444444 0  14 0  C 16.5399305555556 0  18.8823784722222 0.625868055555553  21.02734375 1.87760416666667  C 23.1723090277778 3.12934027777778  24.8706597222222 4.82769097222222  26.1223958333333 6.97265625  Z " fill-rule="nonzero" fill="#999999" stroke="none" fill-opacity="0.588235294117647" transform="matrix(1 0 0 1 174 589 )" />
  </g>
</svg>