<?xml version="1.0" encoding="utf-8"?>
<svg version="1.1" xmlns:xlink="http://www.w3.org/1999/xlink" width="12px" height="21px" xmlns="http://www.w3.org/2000/svg">
  <g transform="matrix(1 0 0 1 -15 -8 )">
    <path d="M 11.79381443298969 1.2625250501001992  C 11.931271477663232 1.4028056112224423  12 1.5641282565130235  12 1.7464929859719445  C 12 1.928857715430861  11.931271477663232 2.0901803607214418  11.79381443298969 2.2304609218436875  L 3.6907216494845363 10.5  L 11.79381443298969 18.769539078156313  C 11.931271477663232 18.90981963927856  12 19.071142284569138  12 19.253507014028056  C 12 19.435871743486974  11.931271477663232 19.597194388777552  11.79381443298969 19.737474949899802  L 10.762886597938145 20.789579158316634  C 10.625429553264606 20.929859719438877  10.467353951890036 21  10.288659793814432 21  C 10.109965635738833 21  9.951890034364263 20.929859719438877  9.814432989690722 20.789579158316634  L 0.2061855670103093 10.983967935871743  C 0.0687285223367698 10.843687374749498  0 10.682364729458916  0 10.5  C 0 10.317635270541082  0.0687285223367698 10.1563126252505  0.2061855670103093 10.016032064128257  L 9.814432989690722 0.21042084168336694  C 9.951890034364263 0.07014028056112154  10.109965635738833 0  10.288659793814432 0  C 10.467353951890036 0  10.625429553264606 0.07014028056112154  10.762886597938145 0.21042084168336694  L 11.79381443298969 1.2625250501001992  Z " fill-rule="nonzero" fill="#797979" stroke="none" transform="matrix(1 0 0 1 15 8 )" />
  </g>
</svg>