<?xml version="1.0" encoding="utf-8"?>
<svg version="1.1" xmlns:xlink="http://www.w3.org/1999/xlink" width="20px" height="20px" xmlns="http://www.w3.org/2000/svg">
  <g transform="matrix(1 0 0 1 -322 -467 )">
    <path d="M 8.75 16.744791666666668  C 8.975694444444445 16.744791666666668  9.171006944444445 16.66232638888889  9.3359375 16.497395833333332  L 15.247395833333332 10.5859375  C 15.412326388888891 10.421006944444443  15.494791666666668 10.225694444444443  15.494791666666668 10  C 15.494791666666668 9.774305555555555  15.412326388888891 9.578993055555555  15.247395833333332 9.4140625  L 9.3359375 3.5026041666666674  C 9.171006944444445 3.3376736111111094  8.975694444444445 3.2552083333333326  8.75 3.2552083333333326  C 8.524305555555557 3.2552083333333326  8.328993055555557 3.3376736111111094  8.1640625 3.5026041666666674  L 6.8359375 4.830729166666668  C 6.6710069444444455 4.995659722222221  6.588541666666666 5.190972222222221  6.588541666666666 5.416666666666668  C 6.588541666666666 5.642361111111109  6.6710069444444455 5.837673611111109  6.8359375 6.002604166666668  L 10.833333333333332 10  L 6.8359375 13.997395833333336  C 6.6710069444444455 14.16232638888889  6.588541666666666 14.35763888888889  6.588541666666666 14.583333333333336  C 6.588541666666666 14.809027777777777  6.6710069444444455 15.004340277777777  6.8359375 15.169270833333332  L 8.1640625 16.497395833333332  C 8.328993055555557 16.66232638888889  8.524305555555557 16.744791666666668  8.75 16.744791666666668  Z M 18.658854166666668 4.98046875  C 19.552951388888886 6.512586805555554  20 8.185763888888886  20 10  C 20 11.81423611111111  19.552951388888886 13.487413194444443  18.658854166666668 15.01953125  C 17.764756944444446 16.551649305555557  16.551649305555557 17.764756944444443  15.01953125 18.658854166666668  C 13.487413194444446 19.55295138888889  11.81423611111111 20  10 20  C 8.18576388888889 20  6.512586805555555 19.55295138888889  4.98046875 18.658854166666668  C 3.4483506944444446 17.764756944444443  2.235243055555556 16.551649305555557  1.3411458333333335 15.01953125  C 0.44704861111111105 13.487413194444443  0 11.81423611111111  0 10  C 0 8.185763888888886  0.44704861111111105 6.512586805555554  1.3411458333333335 4.98046875  C 2.235243055555556 3.448350694444444  3.4483506944444446 2.2352430555555536  4.98046875 1.3411458333333326  C 6.512586805555555 0.4470486111111094  8.18576388888889 0  10 0  C 11.81423611111111 0  13.487413194444446 0.4470486111111094  15.01953125 1.3411458333333326  C 16.551649305555557 2.2352430555555536  17.764756944444446 3.448350694444444  18.658854166666668 4.98046875  Z " fill-rule="nonzero" fill="#999999" stroke="none" fill-opacity="0.5882352941176471" transform="matrix(1 0 0 1 322 467 )" />
  </g>
</svg>