<?xml version="1.0" encoding="utf-8"?>
<svg version="1.1" xmlns:xlink="http://www.w3.org/1999/xlink" width="37px" height="32px" xmlns="http://www.w3.org/2000/svg">
  <g transform="matrix(1 0 0 1 -376 -153 )">
    <path d="M 36.5423177083333 26.075  C 36.8474392361111 26.3916666666667  37 26.7666666666667  37 27.2  L 37 30.4  C 37 30.8333333333333  36.8474392361111 31.2083333333333  36.5423177083333 31.525  C 36.2371961805556 31.8416666666667  35.8758680555556 32  35.4583333333333 32  L 1.54166666666667 32  C 1.12413194444444 32  0.762803819444444 31.8416666666667  0.457682291666667 31.525  C 0.152560763888889 31.2083333333333  0 30.8333333333333  0 30.4  L 0 27.2  C 0 26.7666666666667  0.152560763888889 26.3916666666667  0.457682291666667 26.075  C 0.762803819444444 25.7583333333333  1.12413194444444 25.6  1.54166666666667 25  L 35.4583333333333 25  C 35.8758680555556 25.6  36.2371961805556 25.7583333333333  36.5423177083333 26.075  Z M 36.5423177083333 13.275  C 36.8474392361111 13.5916666666667  37 13.9666666666667  37 14.4  L 37 17.6  C 37 18.0333333333333  36.8474392361111 18.4083333333333  36.5423177083333 18.725  C 36.2371961805556 19.0416666666667  35.8758680555556 19.2  35.4583333333333 19  L 1.54166666666667 19  C 1.12413194444444 19.2  0.762803819444444 19.0416666666667  0.457682291666667 18.725  C 0.152560763888889 18.4083333333333  0 18.0333333333333  0 17.6  L 0 14.4  C 0 13.9666666666667  0.152560763888889 13.5916666666667  0.457682291666667 13.275  C 0.762803819444444 12.9583333333333  1.12413194444444 12.8  1.54166666666667 13  L 35.4583333333333 13  C 35.8758680555556 12.8  36.2371961805556 12.9583333333333  36.5423177083333 13.275  Z M 36.5423177083333 0.475000000000001  C 36.8474392361111 0.791666666666664  37 1.16666666666666  37 1.6  L 37 4.8  C 37 5.23333333333333  36.8474392361111 5.60833333333333  36.5423177083333 5.925  C 36.2371961805556 6.24166666666666  35.8758680555556 6.4  35.4583333333333 7  L 1.54166666666667 7  C 1.12413194444444 6.4  0.762803819444444 6.24166666666666  0.457682291666667 5.925  C 0.152560763888889 5.60833333333333  0 5.23333333333333  0 4.8  L 0 1.6  C 0 1.16666666666666  0.152560763888889 0.791666666666664  0.457682291666667 0.475000000000001  C 0.762803819444444 0.158333333333331  1.12413194444444 0  1.54166666666667 0  L 35.4583333333333 0  C 35.8758680555556 0  36.2371961805556 0.158333333333331  36.5423177083333 0.475000000000001  Z " fill-rule="nonzero" fill="#4abdac" stroke="none" transform="matrix(1 0 0 1 376 153 )" />
  </g>
</svg>