<?xml version="1.0" encoding="utf-8"?>
<svg version="1.1" xmlns:xlink="http://www.w3.org/1999/xlink" width="37px" height="32px" xmlns="http://www.w3.org/2000/svg">
  <g transform="matrix(1 0 0 1 -376 -153 )">
    <path d="M 36.542317708333336 26.075  C 36.84743923611111 26.39166666666667  37 26.76666666666667  37 27.2  L 37 30.4  C 37 30.833333333333332  36.84743923611111 31.208333333333332  36.542317708333336 31.525  C 36.23719618055556 31.84166666666667  35.87586805555556 32  35.458333333333336 32  L 1.5416666666666665 32  C 1.1241319444444446 32  0.7628038194444444 31.84166666666667  0.45768229166666663 31.525  C 0.1525607638888889 31.208333333333332  0 30.833333333333332  0 30.4  L 0 27.2  C 0 26.76666666666667  0.1525607638888889 26.39166666666667  0.45768229166666663 26.075  C 0.7628038194444444 25.758333333333333  1.1241319444444446 25.6  1.5416666666666665 25  L 35.458333333333336 25  C 35.87586805555556 25.6  36.23719618055556 25.758333333333333  36.542317708333336 26.075  Z M 36.542317708333336 13.274999999999999  C 36.84743923611111 13.591666666666665  37 13.966666666666665  37 14.399999999999999  L 37 17.6  C 37 18.03333333333333  36.84743923611111 18.40833333333333  36.542317708333336 18.725  C 36.23719618055556 19.041666666666664  35.87586805555556 19.2  35.458333333333336 19  L 1.5416666666666665 19  C 1.1241319444444446 19.2  0.7628038194444444 19.041666666666664  0.45768229166666663 18.725  C 0.1525607638888889 18.40833333333333  0 18.03333333333333  0 17.6  L 0 14.399999999999999  C 0 13.966666666666665  0.1525607638888889 13.591666666666665  0.45768229166666663 13.274999999999999  C 0.7628038194444444 12.958333333333336  1.1241319444444446 12.8  1.5416666666666665 13  L 35.458333333333336 13  C 35.87586805555556 12.8  36.23719618055556 12.958333333333336  36.542317708333336 13.274999999999999  Z M 36.542317708333336 0.4750000000000014  C 36.84743923611111 0.7916666666666643  37 1.1666666666666643  37 1.6000000000000014  L 37 4.800000000000001  C 37 5.233333333333331  36.84743923611111 5.608333333333331  36.542317708333336 5.925000000000001  C 36.23719618055556 6.241666666666664  35.87586805555556 6.399999999999999  35.458333333333336 7  L 1.5416666666666665 7  C 1.1241319444444446 6.399999999999999  0.7628038194444444 6.241666666666664  0.45768229166666663 5.925000000000001  C 0.1525607638888889 5.608333333333331  0 5.233333333333331  0 4.800000000000001  L 0 1.6000000000000014  C 0 1.1666666666666643  0.1525607638888889 0.7916666666666643  0.45768229166666663 0.4750000000000014  C 0.7628038194444444 0.15833333333333144  1.1241319444444446 0  1.5416666666666665 0  L 35.458333333333336 0  C 35.87586805555556 0  36.23719618055556 0.15833333333333144  36.542317708333336 0.4750000000000014  Z " fill-rule="nonzero" fill="#4abdac" stroke="none" transform="matrix(1 0 0 1 376 153 )" />
  </g>
</svg>