<?xml version="1.0" encoding="utf-8"?>
<svg version="1.1" xmlns:xlink="http://www.w3.org/1999/xlink" width="308px" height="166px" xmlns="http://www.w3.org/2000/svg">
  <defs>
    <mask fill="white" id="clip49">
      <path d="M 16 168  C 5.455 168  -3 159.545  -3 149  L -3 21  C -3 10.455  5.455 2  16 2  L 286 2  C 296.545 2  305 10.455  305 21  L 305 149  C 305 159.545  296.545 168  286 168  " fill-rule="evenodd" />
    </mask>
  </defs>
  <g transform="matrix(1 0 0 1 3 -2 )">
    <path d="M -3 2  L 305 2  L 305 168  L -3 168  L -3 2  " fill-rule="nonzero" fill="#cccccc" stroke="none" mask="url(#clip49)" />
    <path d="M 9 14  L 293 14  L 293 156  L 9 156  L 9 14  " fill-rule="nonzero" fill="#ffffff" stroke="none" mask="url(#clip49)" />
    <path d="M 169.61 51.8  C 162.638 51.8  157.16 46.322  157.16 39.35  C 157.16 32.378  162.638 26.9  169.61 26.9  C 176.582 26.9  182.06 32.378  182.06 39.35  C 182.06 46.322  176.582 51.8  169.61 51.8  " fill-rule="nonzero" fill="#cccccc" stroke="none" mask="url(#clip49)" />
    <path d="M 13 152  L 13 78.3  L 82 44.8  L 178.6 108.667532467532  L 233.8 64.9  L 289 108.667532467532  L 289 152  L 13 152  " fill-rule="nonzero" fill="#169bd5" stroke="none" mask="url(#clip49)" />
  </g>
</svg>