<?xml version="1.0" encoding="utf-8"?>
<svg version="1.1" xmlns:xlink="http://www.w3.org/1999/xlink" width="322px" height="135px" xmlns="http://www.w3.org/2000/svg">
  <defs>
    <filter x="-7px" y="-2px" width="322px" height="135px" filterUnits="userSpaceOnUse" id="filter287">
      <feOffset dx="3" dy="3" in="SourceAlpha" result="shadowOffsetInner" />
      <feGaussianBlur stdDeviation="2.5" in="shadowOffsetInner" result="shadowGaussian" />
      <feComposite in2="shadowGaussian" operator="atop" in="SourceAlpha" result="shadowComposite" />
      <feColorMatrix type="matrix" values="0 0 0 0 0.290196078431373  0 0 0 0 0.741176470588235  0 0 0 0 0.674509803921569  0 0 0 1 0  " in="shadowComposite" />
    </filter>
    <g id="widget288">
      <path d="M -2.5 19  A 16.5 16.5 0 0 1 14 2.5 L 288 2.5  A 16.5 16.5 0 0 1 304.5 19 L 304.5 106  A 16.5 16.5 0 0 1 288 122.5 L 14 122.5  A 16.5 16.5 0 0 1 -2.5 106 L -2.5 19  Z " fill-rule="nonzero" fill="#ffffff" stroke="none" fill-opacity="0" />
      <path d="M -3.5 19  A 17.5 17.5 0 0 1 14 1.5 L 288 1.5  A 17.5 17.5 0 0 1 305.5 19 L 305.5 106  A 17.5 17.5 0 0 1 288 123.5 L 14 123.5  A 17.5 17.5 0 0 1 -3.5 106 L -3.5 19  Z " stroke-width="3" stroke="#4abdac" fill="none" />
    </g>
  </defs>
  <g transform="matrix(1 0 0 1 7 2 )">
    <use xlink:href="#widget288" filter="url(#filter287)" />
    <use xlink:href="#widget288" />
  </g>
</svg>