<?xml version="1.0" encoding="utf-8"?>
<svg version="1.1" xmlns:xlink="http://www.w3.org/1999/xlink" width="322px" height="179px" xmlns="http://www.w3.org/2000/svg">
  <defs>
    <filter x="-7px" y="-2px" width="322px" height="179px" filterUnits="userSpaceOnUse" id="filter25">
      <feOffset dx="3" dy="3" in="SourceAlpha" result="shadowOffsetInner" />
      <feGaussianBlur stdDeviation="2.5" in="shadowOffsetInner" result="shadowGaussian" />
      <feComposite in2="shadowGaussian" operator="atop" in="SourceAlpha" result="shadowComposite" />
      <feColorMatrix type="matrix" values="0 0 0 0 0.2901960784313725  0 0 0 0 0.7411764705882353  0 0 0 0 0.6745098039215687  0 0 0 1 0  " in="shadowComposite" />
    </filter>
    <g id="widget26">
      <path d="M -2.5 19.000000000000004  A 16.5 16.5 0 0 1 13.999999999999996 2.5 L 288 2.5  A 16.5 16.5 0 0 1 304.5 19 L 304.5 150  A 16.5 16.5 0 0 1 288 166.5 L 14 166.5  A 16.5 16.5 0 0 1 -2.5 150 L -2.5 19  Z " fill-rule="nonzero" fill="#ffffff" stroke="none" fill-opacity="0" />
      <path d="M -3.5 19.000000000000004  A 17.5 17.5 0 0 1 13.999999999999996 1.5 L 288 1.5  A 17.5 17.5 0 0 1 305.5 19 L 305.5 150  A 17.5 17.5 0 0 1 288 167.5 L 14 167.5  A 17.5 17.5 0 0 1 -3.5 150 L -3.5 19  Z " stroke-width="3" stroke="#4abdac" fill="none" />
    </g>
  </defs>
  <g transform="matrix(1 0 0 1 7 2 )">
    <use xlink:href="#widget26" filter="url(#filter25)" />
    <use xlink:href="#widget26" />
  </g>
</svg>