<?xml version="1.0" encoding="utf-8"?>
<svg version="1.1" xmlns:xlink="http://www.w3.org/1999/xlink" width="26px" height="25px" xmlns="http://www.w3.org/2000/svg">
  <defs>
    <mask fill="white" id="clip63">
      <path d="M 12.5 25  C 5.5 25  0 19.5  0 12.5  C 0 5.5  5.5 0  12.5 0  L 13.500000000000002 0  C 16.69452321452468 0  19.576649125943163 1.1454567780562002  21.766202329711405 3.0561949296247235  C 24.374508273339757 5.332362354502152  26 8.69452321452468  26 12.5  C 26 19.5  20.5 25  13.500000000000002 25  L 12.5 25  Z " fill-rule="evenodd" />
    </mask>
  </defs>
  <g transform="matrix(1 0 0 1 -371 -585 )">
    <path d="M 12.5 25  C 5.5 25  0 19.5  0 12.5  C 0 5.5  5.5 0  12.5 0  L 13.500000000000002 0  C 16.69452321452468 0  19.576649125943163 1.1454567780562002  21.766202329711405 3.0561949296247235  C 24.374508273339757 5.332362354502152  26 8.69452321452468  26 12.5  C 26 19.5  20.5 25  13.500000000000002 25  L 12.5 25  Z " fill-rule="nonzero" fill="#4abdac" stroke="none" transform="matrix(1 0 0 1 371 585 )" />
    <path d="M 12.5 25  C 5.5 25  0 19.5  0 12.5  C 0 5.5  5.5 0  12.5 0  L 13.500000000000002 0  C 16.69452321452468 0  19.576649125943163 1.1454567780562002  21.766202329711405 3.0561949296247235  C 24.374508273339757 5.332362354502152  26 8.69452321452468  26 12.5  C 26 19.5  20.5 25  13.500000000000002 25  L 12.5 25  Z " stroke-width="2" stroke="#4abdac" fill="none" transform="matrix(1 0 0 1 371 585 )" mask="url(#clip63)" />
  </g>
</svg>