<?xml version="1.0" encoding="utf-8"?>
<svg version="1.1" xmlns:xlink="http://www.w3.org/1999/xlink" width="9px" height="15px" xmlns="http://www.w3.org/2000/svg">
  <g transform="matrix(1 0 0 1 -339 -291 )">
    <path d="M 8.845360824742267 7.154308617234469  C 8.948453608247425 7.254509018036072  9 7.369739478957915  9 7.5  C 9 7.630260521042083  8.948453608247425 7.745490981963926  8.845360824742267 7.845691382765531  L 1.6391752577319587 14.849699398797595  C 1.5360824742268042 14.9498997995992  1.4175257731958761 15  1.2835051546391751 15  C 1.1494845360824744 15  1.0309278350515465 14.9498997995992  0.9278350515463917 14.849699398797595  L 0.15463917525773196 14.098196392785573  C 0.05154639175257736 13.997995991983966  0 13.882765531062125  0 13.75250501002004  C 0 13.622244488977955  0.05154639175257736 13.507014028056114  0.15463917525773196 13.40681362725451  L 6.231958762886598 7.5  L 0.15463917525773196 1.593186372745491  C 0.05154639175257736 1.4929859719438872  0 1.3777555110220434  0 1.2474949899799603  C 0 1.1172344689378737  0.05154639175257736 1.0020040080160304  0.15463917525773196 0.9018036072144281  L 0.9278350515463917 0.15030060120240496  C 1.0309278350515465 0.0501002004008011  1.1494845360824744 0  1.2835051546391751 0  C 1.4175257731958761 0  1.5360824742268042 0.0501002004008011  1.6391752577319587 0.15030060120240496  L 8.845360824742267 7.154308617234469  Z " fill-rule="nonzero" fill="#ffffff" stroke="none" transform="matrix(1 0 0 1 339 291 )" />
  </g>
</svg>