<?xml version="1.0" encoding="utf-8"?>
<svg version="1.1" xmlns:xlink="http://www.w3.org/1999/xlink" width="16px" height="23px" xmlns="http://www.w3.org/2000/svg">
  <g transform="matrix(1 0 0 1 -92 -763 )">
    <path d="M 15.7361111111111 9.10877403846154  C 15.912037037037 9.28385416666666  16 9.49118589743589  16 9.73076923076923  L 16 11.5  C 16 13.5364583333333  15.3171296296296 15.3079927884615  13.9513888888889 16.8146033653846  C 12.5856481481481 18.3212139423077  10.8981481481481 19.1850961538462  8.88888888888889 19.40625  L 8.88888888888889 21.2307692307692  L 12.4444444444444 21.2307692307692  C 12.6851851851852 21.2307692307692  12.8935185185185 21.3183092948718  13.0694444444444 21.4933894230769  C 13.2453703703704 21.6684695512821  13.3333333333333 21.8758012820513  13.3333333333333 22.1153846153846  C 13.3333333333333 22.3549679487179  13.2453703703704 22.5622996794872  13.0694444444444 22.7373798076923  C 12.8935185185185 22.9124599358974  12.6851851851852 23  12.4444444444444 23  L 3.55555555555556 23  C 3.31481481481481 23  3.10648148148148 22.9124599358974  2.93055555555556 22.7373798076923  C 2.75462962962963 22.5622996794872  2.66666666666667 22.3549679487179  2.66666666666667 22.1153846153846  C 2.66666666666667 21.8758012820513  2.75462962962963 21.6684695512821  2.93055555555556 21.4933894230769  C 3.10648148148148 21.3183092948718  3.31481481481481 21.2307692307692  3.55555555555556 21.2307692307692  L 7.11111111111111 21.2307692307692  L 7.11111111111111 19.40625  C 5.10185185185185 19.1850961538462  3.41435185185185 18.3212139423077  2.04861111111111 16.8146033653846  C 0.68287037037037 15.3079927884615  0 13.5364583333333  0 11.5  L 0 9.73076923076923  C 0 9.49118589743589  0.087962962962963 9.28385416666666  0.263888888888889 9.10877403846154  C 0.439814814814815 8.93369391025641  0.648148148148148 8.84615384615384  0.888888888888889 8.84615384615384  C 1.12962962962963 8.84615384615384  1.33796296296296 8.93369391025641  1.51388888888889 9.10877403846154  C 1.68981481481481 9.28385416666666  1.77777777777778 9.49118589743589  1.77777777777778 9.73076923076923  L 1.77777777777778 11.5  C 1.77777777777778 13.2047275641026  2.38657407407407 14.6629607371795  3.60416666666667 15.8746995192308  C 4.82175925925926 17.086438301282  6.28703703703704 17.6923076923077  8 17.6923076923077  C 9.71296296296296 17.6923076923077  11.1782407407407 17.086438301282  12.3958333333333 15.8746995192308  C 13.6134259259259 14.6629607371795  14.2222222222222 13.2047275641026  14.2222222222222 11.5  L 14.2222222222222 9.73076923076923  C 14.2222222222222 9.49118589743589  14.3101851851852 9.28385416666666  14.4861111111111 9.10877403846154  C 14.662037037037 8.93369391025641  14.8703703703704 8.84615384615384  15.1111111111111 8.84615384615384  C 15.3518518518519 8.84615384615384  15.5601851851852 8.93369391025641  15.7361111111111 9.10877403846154  Z M 11.1388888888889 1.29927884615385  C 12.0092592592593 2.16546474358974  12.4444444444444 3.20673076923077  12.4444444444444 4.42307692307692  L 12.4444444444444 11.5  C 12.4444444444444 12.7163461538462  12.0092592592593 13.7576121794872  11.1388888888889 14.6237980769231  C 10.2685185185185 15.489983974359  9.22222222222222 15.9230769230769  8 15.9230769230769  C 6.77777777777778 15.9230769230769  5.73148148148148 15.489983974359  4.86111111111111 14.6237980769231  C 3.99074074074074 13.7576121794872  3.55555555555556 12.7163461538462  3.55555555555556 11.5  L 3.55555555555556 4.42307692307692  C 3.55555555555556 3.20673076923077  3.99074074074074 2.16546474358974  4.86111111111111 1.29927884615385  C 5.73148148148148 0.433092948717951  6.77777777777778 0  8 0  C 9.22222222222222 0  10.2685185185185 0.433092948717951  11.1388888888889 1.29927884615385  Z " fill-rule="nonzero" fill="#f7b733" stroke="none" transform="matrix(1 0 0 1 92 763 )" />
  </g>
</svg>