<?xml version="1.0" encoding="utf-8"?>
<svg version="1.1" xmlns:xlink="http://www.w3.org/1999/xlink" width="16px" height="23px" xmlns="http://www.w3.org/2000/svg">
  <g transform="matrix(1 0 0 1 -92 -763 )">
    <path d="M 15.73611111111111 9.108774038461538  C 15.912037037037038 9.283854166666664  16 9.491185897435894  16 9.730769230769232  L 16 11.5  C 16 13.536458333333332  15.317129629629632 15.307992788461538  13.95138888888889 16.814603365384617  C 12.585648148148149 18.32121394230769  10.898148148148149 19.185096153846153  8.88888888888889 19.40625  L 8.88888888888889 21.230769230769234  L 12.444444444444445 21.230769230769234  C 12.685185185185185 21.230769230769234  12.893518518518519 21.318309294871796  13.069444444444445 21.493389423076923  C 13.245370370370372 21.66846955128205  13.333333333333336 21.875801282051285  13.333333333333334 22.115384615384617  C 13.333333333333336 22.35496794871795  13.245370370370372 22.56229967948718  13.069444444444445 22.737379807692307  C 12.893518518518519 22.912459935897438  12.685185185185185 23  12.444444444444445 23  L 3.5555555555555554 23  C 3.314814814814815 23  3.106481481481482 22.912459935897438  2.9305555555555554 22.737379807692307  C 2.7546296296296293 22.56229967948718  2.6666666666666665 22.35496794871795  2.6666666666666665 22.115384615384617  C 2.6666666666666665 21.875801282051285  2.7546296296296293 21.66846955128205  2.9305555555555554 21.493389423076923  C 3.106481481481482 21.318309294871796  3.314814814814815 21.230769230769234  3.5555555555555554 21.230769230769234  L 7.111111111111111 21.230769230769234  L 7.111111111111111 19.40625  C 5.101851851851852 19.185096153846153  3.414351851851852 18.32121394230769  2.048611111111111 16.814603365384617  C 0.6828703703703703 15.307992788461538  0 13.536458333333332  0 11.5  L 0 9.730769230769232  C 0 9.491185897435894  0.08796296296296297 9.283854166666664  0.2638888888888889 9.108774038461538  C 0.4398148148148148 8.93369391025641  0.6481481481481483 8.846153846153845  0.8888888888888888 8.846153846153845  C 1.1296296296296298 8.846153846153845  1.337962962962963 8.93369391025641  1.5138888888888888 9.108774038461538  C 1.6898148148148149 9.283854166666664  1.7777777777777777 9.491185897435894  1.7777777777777777 9.730769230769232  L 1.7777777777777777 11.5  C 1.7777777777777777 13.204727564102562  2.3865740740740744 14.662960737179485  3.6041666666666665 15.874699519230768  C 4.8217592592592595 17.086438301282048  6.287037037037037 17.69230769230769  8 17.69230769230769  C 9.712962962962964 17.69230769230769  11.17824074074074 17.086438301282048  12.395833333333334 15.874699519230768  C 13.613425925925927 14.662960737179485  14.222222222222221 13.204727564102562  14.222222222222221 11.5  L 14.222222222222221 9.730769230769232  C 14.222222222222221 9.491185897435894  14.310185185185187 9.283854166666664  14.48611111111111 9.108774038461538  C 14.662037037037038 8.93369391025641  14.870370370370372 8.846153846153845  15.11111111111111 8.846153846153845  C 15.351851851851855 8.846153846153845  15.560185185185187 8.93369391025641  15.73611111111111 9.108774038461538  Z M 11.13888888888889 1.2992788461538454  C 12.00925925925926 2.1654647435897423  12.444444444444445 3.2067307692307683  12.444444444444445 4.4230769230769225  L 12.444444444444445 11.5  C 12.444444444444445 12.716346153846155  12.00925925925926 13.757612179487177  11.13888888888889 14.623798076923077  C 10.268518518518519 15.489983974358974  9.222222222222221 15.923076923076923  8 15.923076923076923  C 6.777777777777779 15.923076923076923  5.731481481481483 15.489983974358974  4.861111111111111 14.623798076923077  C 3.9907407407407414 13.757612179487177  3.5555555555555554 12.716346153846155  3.5555555555555554 11.5  L 3.5555555555555554 4.4230769230769225  C 3.5555555555555554 3.2067307692307683  3.9907407407407414 2.1654647435897423  4.861111111111111 1.2992788461538454  C 5.731481481481483 0.433092948717951  6.777777777777779 0  8 0  C 9.222222222222221 0  10.268518518518519 0.433092948717951  11.13888888888889 1.2992788461538454  Z " fill-rule="nonzero" fill="#f7b733" stroke="none" transform="matrix(1 0 0 1 92 763 )" />
  </g>
</svg>