<?xml version="1.0" encoding="utf-8"?>
<svg version="1.1" xmlns:xlink="http://www.w3.org/1999/xlink" width="7px" height="13px" xmlns="http://www.w3.org/2000/svg">
  <g transform="matrix(1 0 0 1 -384 -305 )">
    <path d="M 6.8797250859106525 6.200400801603207  C 6.959908361970219 6.287241148964595  7 6.387107548430193  7 6.5  C 7 6.612892451569805  6.959908361970219 6.712758851035403  6.8797250859106525 6.799599198396793  L 1.274914089347079 12.869739478957916  C 1.1947308132875143 12.956579826319306  1.102520045819015 13  0.9982817869415808 13  C 0.8940435280641468 13  0.8018327605956472 12.956579826319306  0.7216494845360825 12.869739478957916  L 0.1202749140893471 12.218436873747496  C 0.040091638029782384 12.131596526386105  0 12.031730126920507  0 11.918837675350701  C 0 11.805945223780894  0.040091638029782384 11.706078824315298  0.1202749140893471 11.619238476953909  L 4.847079037800687 6.5  L 0.1202749140893471 1.3807615230460921  C 0.040091638029782384 1.293921175684702  0 1.1940547762191045  0 1.081162324649299  C 0 0.9682698730794906  0.040091638029782384 0.8684034736138929  0.1202749140893471 0.7815631262525043  L 0.7216494845360825 0.1302605210420843  C 0.8018327605956472 0.043420173680694285  0.8940435280641468 0  0.9982817869415808 0  C 1.102520045819015 0  1.1947308132875143 0.043420173680694285  1.274914089347079 0.1302605210420843  L 6.8797250859106525 6.200400801603207  Z " fill-rule="nonzero" fill="#000000" stroke="none" transform="matrix(1 0 0 1 384 305 )" />
  </g>
</svg>